<mxfile host="65bd71144e">
    <diagram id="d3TLaJjNIUq5nhFyzcYb" name="architecture">
        <mxGraphModel dx="1199" dy="386" grid="1" gridSize="10" guides="1" tooltips="1" connect="1" arrows="1" fold="1" page="1" pageScale="1" pageWidth="1169" pageHeight="827" math="0" shadow="0">
            <root>
                <mxCell id="0"/>
                <mxCell id="1" parent="0"/>
                <mxCell id="39" value="" style="rounded=1;whiteSpace=wrap;html=1;" vertex="1" parent="1">
                    <mxGeometry x="414" y="40" width="680" height="280" as="geometry"/>
                </mxCell>
                <mxCell id="26" value="" style="edgeStyle=none;html=1;exitX=1;exitY=0.25;exitDx=0;exitDy=0;entryX=-0.019;entryY=0.345;entryDx=0;entryDy=0;entryPerimeter=0;" edge="1" parent="1" source="4" target="8">
                    <mxGeometry x="-0.1849" y="15" relative="1" as="geometry">
                        <mxPoint as="offset"/>
                        <mxPoint x="459" y="150" as="targetPoint"/>
                    </mxGeometry>
                </mxCell>
                <mxCell id="32" value="HTTP Request" style="edgeLabel;html=1;align=center;verticalAlign=middle;resizable=0;points=[];" connectable="0" vertex="1" parent="26">
                    <mxGeometry x="-0.3658" y="1" relative="1" as="geometry">
                        <mxPoint x="24" y="-7" as="offset"/>
                    </mxGeometry>
                </mxCell>
                <mxCell id="4" value="Client" style="rounded=1;whiteSpace=wrap;html=1;" vertex="1" parent="1">
                    <mxGeometry x="74" y="122" width="110" height="111.5" as="geometry"/>
                </mxCell>
                <mxCell id="5" value="Application Layer" style="rounded=1;whiteSpace=wrap;html=1;" vertex="1" parent="1">
                    <mxGeometry x="696" y="390.5" width="120" height="60" as="geometry"/>
                </mxCell>
                <mxCell id="6" value="Data Layer" style="rounded=1;whiteSpace=wrap;html=1;" vertex="1" parent="1">
                    <mxGeometry x="935" y="390.5" width="120" height="60" as="geometry"/>
                </mxCell>
                <mxCell id="7" value="Presentation Layer" style="rounded=1;whiteSpace=wrap;html=1;" vertex="1" parent="1">
                    <mxGeometry x="455" y="390.5" width="120" height="60" as="geometry"/>
                </mxCell>
                <mxCell id="21" style="edgeStyle=none;html=1;exitX=0;exitY=0.75;exitDx=0;exitDy=0;entryX=1;entryY=0.75;entryDx=0;entryDy=0;" edge="1" parent="1" source="10" target="8">
                    <mxGeometry relative="1" as="geometry"/>
                </mxCell>
                <mxCell id="22" value="API Response" style="edgeLabel;html=1;align=center;verticalAlign=middle;resizable=0;points=[];" connectable="0" vertex="1" parent="21">
                    <mxGeometry x="0.3697" y="-2" relative="1" as="geometry">
                        <mxPoint x="21" y="-6" as="offset"/>
                    </mxGeometry>
                </mxCell>
                <mxCell id="24" style="edgeStyle=none;html=1;exitX=1;exitY=0.25;exitDx=0;exitDy=0;entryX=0;entryY=0.25;entryDx=0;entryDy=0;" edge="1" parent="1" source="10" target="9">
                    <mxGeometry relative="1" as="geometry"/>
                </mxCell>
                <mxCell id="27" value="DB Query" style="edgeLabel;html=1;align=center;verticalAlign=middle;resizable=0;points=[];" connectable="0" vertex="1" parent="24">
                    <mxGeometry x="-0.2712" y="2" relative="1" as="geometry">
                        <mxPoint x="16" y="-6" as="offset"/>
                    </mxGeometry>
                </mxCell>
                <mxCell id="36" style="edgeStyle=none;html=1;exitX=0.5;exitY=1;exitDx=0;exitDy=0;entryX=0.5;entryY=0;entryDx=0;entryDy=0;dashed=1;endArrow=none;endFill=0;" edge="1" parent="1" source="10" target="5">
                    <mxGeometry relative="1" as="geometry"/>
                </mxCell>
                <mxCell id="10" value="&lt;b&gt;&lt;br&gt;&lt;br&gt;&lt;br&gt;&lt;br&gt;&lt;br&gt;&lt;br&gt;&lt;br&gt;&lt;br&gt;&lt;br&gt;&lt;br&gt;&lt;br&gt;&lt;br&gt;Backend APIs&lt;/b&gt;" style="rounded=1;whiteSpace=wrap;html=1;" vertex="1" parent="1">
                    <mxGeometry x="696" y="80.5" width="120" height="200" as="geometry"/>
                </mxCell>
                <mxCell id="15" value="" style="group" vertex="1" connectable="0" parent="1">
                    <mxGeometry x="455" y="80.5" width="120" height="211" as="geometry"/>
                </mxCell>
                <mxCell id="8" value="&lt;br&gt;&lt;br&gt;&lt;br&gt;&lt;br&gt;&lt;br&gt;&lt;br&gt;React&lt;br&gt;&lt;br&gt;&lt;br&gt;&lt;br&gt;&lt;br&gt;&lt;br&gt;HTML, CSS, JS" style="rounded=1;whiteSpace=wrap;html=1;fontStyle=1;align=center;" vertex="1" parent="15">
                    <mxGeometry width="120" height="200" as="geometry"/>
                </mxCell>
                <mxCell id="11" value="" style="shape=image;imageAspect=0;aspect=fixed;verticalLabelPosition=bottom;verticalAlign=top;image=data:image/svg+xml,PHN2ZyB4bWxucz0iaHR0cDovL3d3dy53My5vcmcvMjAwMC9zdmciIHZpZXdCb3g9Ii0xMS41IC0xMC4yMzE3NCAyMyAyMC40NjM0OCI+CiAgPHRpdGxlPlJlYWN0IExvZ288L3RpdGxlPgogIDxjaXJjbGUgY3g9IjAiIGN5PSIwIiByPSIyLjA1IiBmaWxsPSIjNjFkYWZiIi8+CiAgPGcgc3Ryb2tlPSIjNjFkYWZiIiBzdHJva2Utd2lkdGg9IjEiIGZpbGw9Im5vbmUiPgogICAgPGVsbGlwc2Ugcng9IjExIiByeT0iNC4yIi8+CiAgICA8ZWxsaXBzZSByeD0iMTEiIHJ5PSI0LjIiIHRyYW5zZm9ybT0icm90YXRlKDYwKSIvPgogICAgPGVsbGlwc2Ugcng9IjExIiByeT0iNC4yIiB0cmFuc2Zvcm09InJvdGF0ZSgxMjApIi8+CiAgPC9nPgo8L3N2Zz4=;" vertex="1" parent="15">
                    <mxGeometry x="29.02" y="14.066666666666666" width="61.97" height="55" as="geometry"/>
                </mxCell>
                <mxCell id="18" style="edgeStyle=none;html=1;exitX=1;exitY=0.25;exitDx=0;exitDy=0;entryX=0;entryY=0.25;entryDx=0;entryDy=0;" edge="1" parent="1" source="8" target="10">
                    <mxGeometry relative="1" as="geometry"/>
                </mxCell>
                <mxCell id="19" value="API Request" style="edgeLabel;html=1;align=center;verticalAlign=middle;resizable=0;points=[];" connectable="0" vertex="1" parent="18">
                    <mxGeometry x="-0.2437" y="-1" relative="1" as="geometry">
                        <mxPoint x="14" y="-9" as="offset"/>
                    </mxGeometry>
                </mxCell>
                <mxCell id="23" value="" style="group" vertex="1" connectable="0" parent="1">
                    <mxGeometry x="935" y="80.5" width="120" height="200" as="geometry"/>
                </mxCell>
                <mxCell id="9" value="&lt;b&gt;&lt;br&gt;&lt;br&gt;&lt;br&gt;&lt;br&gt;&lt;br&gt;&lt;br&gt;mongoDB&lt;br&gt;&lt;br&gt;&lt;br&gt;&lt;br&gt;&lt;br&gt;&lt;br&gt;Database&lt;/b&gt;" style="rounded=1;whiteSpace=wrap;html=1;" vertex="1" parent="23">
                    <mxGeometry width="120" height="200" as="geometry"/>
                </mxCell>
                <mxCell id="20" value="" style="shape=image;imageAspect=0;aspect=fixed;verticalLabelPosition=bottom;verticalAlign=top;image=data:image/svg+xml,PHN2ZyB4bWxucz0iaHR0cDovL3d3dy53My5vcmcvMjAwMC9zdmciIGhlaWdodD0iMjUwMCIgdmlld0JveD0iOC43MzggLTUuMDM2MjI4MzQgMTcuNDU5OTI0MjIgMzkuNDA2MTk0ODQiIHdpZHRoPSIyNTAwIj48cGF0aCBkPSJtMTUuOS4wODcuODU0IDEuNjA0Yy4xOTIuMjk2LjQuNTU4LjY0NS44MDJhMjIuNDA2IDIyLjQwNiAwIDAgMSAyLjAwNCAyLjI2NmMxLjQ0NyAxLjkgMi40MjMgNC4wMSAzLjEyIDYuMjkyLjQxOCAxLjM5NC42NDUgMi44MjQuNjYyIDQuMjcuMDcgNC4zMjMtMS40MTIgOC4wMzUtNC40IDExLjEyYTEyLjcgMTIuNyAwIDAgMSAtMS41NyAxLjM0MmMtLjI5NiAwLS40MzYtLjIyNy0uNTU4LS40MzZhMy41ODkgMy41ODkgMCAwIDEgLS40MzYtMS4yNTVjLS4xMDUtLjUyMy0uMTc0LTEuMDQ2LS4xNC0xLjU4NnYtLjI0NGMtLjAyNC0uMDUyLS4yODUtMjQuMDUyLS4xODEtMjQuMTc1eiIgZmlsbD0iIzU5OTYzNiIvPjxwYXRoIGQ9Im0xNS45LjAzNGMtLjAzNS0uMDctLjA3LS4wMTctLjEwNS4wMTcuMDE3LjM1LS4xMDUuNjYyLS4yOTYuOTYtLjIxLjI5Ni0uNDg4LjUyMy0uNzY3Ljc2Ny0xLjU1IDEuMzQyLTIuNzcgMi45NjMtMy43NDcgNC43NzYtMS4zIDIuNDQtMS45NyA1LjA1NS0yLjE2IDcuODA4LS4wODcuOTkzLjMxNCA0LjQ5Ny42MjcgNS41MDguODU0IDIuNjg0IDIuMzg4IDQuOTMzIDQuMzc1IDYuODg1LjQ4OC40NyAxLjAxLjkwNiAxLjU1IDEuMzI1LjE1NyAwIC4xNzQtLjE0LjIxLS4yNDRhNC43OCA0Ljc4IDAgMCAwIC4xNTctLjY4bC4zNS0yLjYxNHoiIGZpbGw9IiM2Y2FjNDgiLz48cGF0aCBkPSJtMTYuNzU0IDI4Ljg0NWMuMDM1LS40LjIyNy0uNzMyLjQzNi0xLjA2My0uMjEtLjA4Ny0uMzY2LS4yNi0uNDg4LS40NTNhMy4yMzUgMy4yMzUgMCAwIDEgLS4yNi0uNTc1Yy0uMjQ0LS43MzItLjI5Ni0xLjUtLjM2Ni0yLjI0OHYtLjQ1M2MtLjA4Ny4wNy0uMTA1LjY2Mi0uMTA1Ljc1YTE3LjM3IDE3LjM3IDAgMCAxIC0uMzE0IDIuMzUzYy0uMDUyLjMxNC0uMDg3LjYyNy0uMjguOTA2IDAgLjAzNSAwIC4wNy4wMTcuMTIyLjMxNC45MjQuNCAxLjg2NS40NTMgMi44MjR2LjM1YzAgLjQxOC0uMDE3LjMzLjMzLjQ3LjE0LjA1Mi4yOTYuMDcuNDM2LjE3NC4xMDUgMCAuMTIyLS4wODcuMTIyLS4xNTdsLS4wNTItLjU3NXYtMS42MDRjLS4wMTctLjI4LjAzNS0uNTU4LjA3LS44MnoiIGZpbGw9IiNjMmJmYmYiLz48L3N2Zz4=;" vertex="1" parent="23">
                    <mxGeometry x="30" y="10" width="60" height="60" as="geometry"/>
                </mxCell>
                <mxCell id="25" style="edgeStyle=none;html=1;exitX=0;exitY=0.75;exitDx=0;exitDy=0;" edge="1" parent="1" source="9">
                    <mxGeometry relative="1" as="geometry">
                        <mxPoint x="815" y="230.5" as="targetPoint"/>
                    </mxGeometry>
                </mxCell>
                <mxCell id="28" value="DB Response" style="edgeLabel;html=1;align=center;verticalAlign=middle;resizable=0;points=[];" connectable="0" vertex="1" parent="25">
                    <mxGeometry x="0.2199" relative="1" as="geometry">
                        <mxPoint x="13" y="-8" as="offset"/>
                    </mxGeometry>
                </mxCell>
                <mxCell id="30" style="edgeStyle=none;html=1;exitX=-0.006;exitY=0.552;exitDx=0;exitDy=0;exitPerimeter=0;entryX=1.01;entryY=0.63;entryDx=0;entryDy=0;entryPerimeter=0;" edge="1" parent="1">
                    <mxGeometry relative="1" as="geometry">
                        <mxPoint x="185.0999999999999" y="191.245" as="targetPoint"/>
                        <mxPoint x="454.2800000000001" y="189.9000000000001" as="sourcePoint"/>
                    </mxGeometry>
                </mxCell>
                <mxCell id="31" value="HTTP Response" style="edgeLabel;html=1;align=center;verticalAlign=middle;resizable=0;points=[];" vertex="1" connectable="0" parent="30">
                    <mxGeometry x="0.138" y="1" relative="1" as="geometry">
                        <mxPoint x="9" y="-9" as="offset"/>
                    </mxGeometry>
                </mxCell>
                <mxCell id="34" value="" style="shape=image;imageAspect=0;aspect=fixed;verticalLabelPosition=bottom;verticalAlign=top;image=data:image/svg+xml,PHN2ZyB4bWxucz0iaHR0cDovL3d3dy53My5vcmcvMjAwMC9zdmciIHhtbG5zOnhsaW5rPSJodHRwOi8vd3d3LnczLm9yZy8xOTk5L3hsaW5rIiB3aWR0aD0iMzkzOCIgaGVpZ2h0PSIyNDc1IiBvdmVyZmxvdz0iaGlkZGVuIiB2aWV3Qm94PSIwIDAgMzkzOCAyNDc1Ij48ZGVmcz48Y2xpcFBhdGggaWQ9ImNsaXAwIj48cmVjdCB4PSIyMzEiIHk9IjAiIHdpZHRoPSIzOTM4IiBoZWlnaHQ9IjI0NzUiLz48L2NsaXBQYXRoPjxjbGlwUGF0aCBpZD0iY2xpcDEiPjxyZWN0IHg9IjkyMiIgeT0iNzAiIHdpZHRoPSIyNTU2IiBoZWlnaHQ9IjIzMzUiLz48L2NsaXBQYXRoPjxjbGlwUGF0aCBpZD0iY2xpcDIiPjxyZWN0IHg9IjkyMiIgeT0iNzAiIHdpZHRoPSIyNTU2IiBoZWlnaHQ9IjIzMzUiLz48L2NsaXBQYXRoPjxjbGlwUGF0aCBpZD0iY2xpcDMiPjxyZWN0IHg9IjkyMiIgeT0iNzAiIHdpZHRoPSIyNTU2IiBoZWlnaHQ9IjIzMzUiLz48L2NsaXBQYXRoPjxsaW5lYXJHcmFkaWVudCB4MT0iMTA0MS40NCIgeTE9IjQ2NS44NzIiIHgyPSI4MjEuNjg1IiB5Mj0iOTE0LjE2MyIgZ3JhZGllbnRVbml0cz0idXNlclNwYWNlT25Vc2UiIHNwcmVhZE1ldGhvZD0icGFkIiBpZD0iZmlsbDQiPjxzdG9wIG9mZnNldD0iMCIgc3RvcC1jb2xvcj0iIzQxODczRiIvPjxzdG9wIG9mZnNldD0iMC4zMjg4IiBzdG9wLWNvbG9yPSIjNDE4QjNEIi8+PHN0b3Agb2Zmc2V0PSIwLjYzNTIiIHN0b3AtY29sb3I9IiM0MTk2MzciLz48c3RvcCBvZmZzZXQ9IjAuOTMxOSIgc3RvcC1jb2xvcj0iIzNGQTkyRCIvPjxzdG9wIG9mZnNldD0iMSIgc3RvcC1jb2xvcj0iIzNGQUUyQSIvPjwvbGluZWFyR3JhZGllbnQ+PGNsaXBQYXRoIGlkPSJjbGlwNSI+PHBhdGggZD0iTTE4ODAuMTcgNDMzLjExNUMxODcwLjk0IDQyNy45MTggMTg1OS45NyA0MjcuOTE4IDE4NTAuNzMgNDMzLjExNUwxNjA3LjY4IDU3My40MzVDMTU5OC40NSA1NzguNjMyIDE1OTMuMjUgNTg4LjQ0OSAxNTkzLjI1IDU5OC44NDNMMTU5My4yNSA4ODAuMDZDMTU5My4yNSA4OTAuNDU0IDE1OTkuMDIgOTAwLjI3MSAxNjA3LjY4IDkwNS40NjhMMTg1MC43MyAxMDQ1Ljc5QzE4NTkuOTcgMTA1MC45OCAxODcwLjk0IDEwNTAuOTggMTg4MC4xNyAxMDQ1Ljc5TDIxMjMuMjIgOTA1LjQ2OEMyMTMyLjQ2IDkwMC4yNzEgMjEzNy42NSA4OTAuNDU0IDIxMzcuNjUgODgwLjA2TDIxMzcuNjUgNTk4Ljg0M0MyMTM3LjY1IDU4OC40NDkgMjEzMS44OCA1NzguNjMyIDIxMjMuMjIgNTczLjQzNUwxODgwLjE3IDQzMy4xMTVaIi8+PC9jbGlwUGF0aD48bGluZWFyR3JhZGllbnQgeDE9IjkwNS41MTQiIHkxPSI3MDAuNDgyIiB4Mj0iMTUyMi4xMiIgeTI9IjI0NC45MDIiIGdyYWRpZW50VW5pdHM9InVzZXJTcGFjZU9uVXNlIiBzcHJlYWRNZXRob2Q9InBhZCIgaWQ9ImZpbGw2Ij48c3RvcCBvZmZzZXQ9IjAiIHN0b3AtY29sb3I9IiM0MTg3M0YiLz48c3RvcCBvZmZzZXQ9IjAuMTM3NiIgc3RvcC1jb2xvcj0iIzQxODczRiIvPjxzdG9wIG9mZnNldD0iMC40MDMyIiBzdG9wLWNvbG9yPSIjNTRBMDQ0Ii8+PHN0b3Agb2Zmc2V0PSIwLjcxMzYiIHN0b3AtY29sb3I9IiM2NkI4NDgiLz48c3RvcCBvZmZzZXQ9IjAuOTA4MSIgc3RvcC1jb2xvcj0iIzZDQzA0QSIvPjxzdG9wIG9mZnNldD0iMSIgc3RvcC1jb2xvcj0iIzZDQzA0QSIvPjwvbGluZWFyR3JhZGllbnQ+PGNsaXBQYXRoIGlkPSJjbGlwNyI+PHBhdGggZD0iTTE4ODAuMTcgNDMzLjExNUMxODcwLjk0IDQyNy45MTggMTg1OS45NyA0MjcuOTE4IDE4NTAuNzMgNDMzLjExNUwxNjA3LjY4IDU3My40MzVDMTU5OC40NSA1NzguNjMyIDE1OTMuMjUgNTg4LjQ0OSAxNTkzLjI1IDU5OC44NDNMMTU5My4yNSA4ODAuMDZDMTU5My4yNSA4OTAuNDU0IDE1OTkuMDIgOTAwLjI3MSAxNjA3LjY4IDkwNS40NjhMMTg1MC43MyAxMDQ1Ljc5QzE4NTkuOTcgMTA1MC45OCAxODcwLjk0IDEwNTAuOTggMTg4MC4xNyAxMDQ1Ljc5TDIxMjMuMjIgOTA1LjQ2OEMyMTMyLjQ2IDkwMC4yNzEgMjEzNy42NSA4OTAuNDU0IDIxMzcuNjUgODgwLjA2TDIxMzcuNjUgNTk4Ljg0M0MyMTM3LjY1IDU4OC40NDkgMjEzMS44OCA1NzguNjMyIDIxMjMuMjIgNTczLjQzNUwxODgwLjE3IDQzMy4xMTVaIi8+PC9jbGlwUGF0aD48bGluZWFyR3JhZGllbnQgeDE9IjY2MS4zNDEiIHkxPSIzMTAuNjkxIiB4Mj0iMTIyMy43MyIgeTI9IjMxMC42OTEiIGdyYWRpZW50VW5pdHM9InVzZXJTcGFjZU9uVXNlIiBzcHJlYWRNZXRob2Q9InBhZCIgaWQ9ImZpbGw4Ij48c3RvcCBvZmZzZXQ9IjAiIHN0b3AtY29sb3I9IiM2Q0MwNEEiLz48c3RvcCBvZmZzZXQ9IjAuMDkxOTE2NSIgc3RvcC1jb2xvcj0iIzZDQzA0QSIvPjxzdG9wIG9mZnNldD0iMC4yODY0IiBzdG9wLWNvbG9yPSIjNjZCODQ4Ii8+PHN0b3Agb2Zmc2V0PSIwLjU5NjgiIHN0b3AtY29sb3I9IiM1NEEwNDQiLz48c3RvcCBvZmZzZXQ9IjAuODYyNCIgc3RvcC1jb2xvcj0iIzQxODczRiIvPjxzdG9wIG9mZnNldD0iMSIgc3RvcC1jb2xvcj0iIzQxODczRiIvPjwvbGluZWFyR3JhZGllbnQ+PGxpbmVhckdyYWRpZW50IHgxPSI2NjEuMzQxIiB5MT0iNjY3LjU2NSIgeDI9IjEyMjMuNzMiIHkyPSI2NjcuNTY1IiBncmFkaWVudFVuaXRzPSJ1c2VyU3BhY2VPblVzZSIgc3ByZWFkTWV0aG9kPSJwYWQiIGlkPSJmaWxsOSI+PHN0b3Agb2Zmc2V0PSIwIiBzdG9wLWNvbG9yPSIjNkNDMDRBIi8+PHN0b3Agb2Zmc2V0PSIwLjA5MTkxNjUiIHN0b3AtY29sb3I9IiM2Q0MwNEEiLz48c3RvcCBvZmZzZXQ9IjAuMjg2NCIgc3RvcC1jb2xvcj0iIzY2Qjg0OCIvPjxzdG9wIG9mZnNldD0iMC41OTY4IiBzdG9wLWNvbG9yPSIjNTRBMDQ0Ii8+PHN0b3Agb2Zmc2V0PSIwLjg2MjQiIHN0b3AtY29sb3I9IiM0MTg3M0YiLz48c3RvcCBvZmZzZXQ9IjEiIHN0b3AtY29sb3I9IiM0MTg3M0YiLz48L2xpbmVhckdyYWRpZW50PjxsaW5lYXJHcmFkaWVudCB4MT0iNjYxLjM0MSIgeTE9IjgyOC4xMTciIHgyPSIxMjIzLjczIiB5Mj0iODI4LjExNyIgZ3JhZGllbnRVbml0cz0idXNlclNwYWNlT25Vc2UiIHNwcmVhZE1ldGhvZD0icGFkIiBpZD0iZmlsbDEwIj48c3RvcCBvZmZzZXQ9IjAiIHN0b3AtY29sb3I9IiM2Q0MwNEEiLz48c3RvcCBvZmZzZXQ9IjAuMDkxOTE2NSIgc3RvcC1jb2xvcj0iIzZDQzA0QSIvPjxzdG9wIG9mZnNldD0iMC4yODY0IiBzdG9wLWNvbG9yPSIjNjZCODQ4Ii8+PHN0b3Agb2Zmc2V0PSIwLjU5NjgiIHN0b3AtY29sb3I9IiM1NEEwNDQiLz48c3RvcCBvZmZzZXQ9IjAuODYyNCIgc3RvcC1jb2xvcj0iIzQxODczRiIvPjxzdG9wIG9mZnNldD0iMSIgc3RvcC1jb2xvcj0iIzQxODczRiIvPjwvbGluZWFyR3JhZGllbnQ+PGxpbmVhckdyYWRpZW50IHgxPSI2NTkuNTEiIHkxPSI5MDAuNjgyIiB4Mj0iMTIyNS41MSIgeTI9IjkwMC42ODIiIGdyYWRpZW50VW5pdHM9InVzZXJTcGFjZU9uVXNlIiBzcHJlYWRNZXRob2Q9InBhZCIgaWQ9ImZpbGwxMSI+PHN0b3Agb2Zmc2V0PSIwIiBzdG9wLWNvbG9yPSIjNkNDMDRBIi8+PHN0b3Agb2Zmc2V0PSIwLjA5MTkxNjUiIHN0b3AtY29sb3I9IiM2Q0MwNEEiLz48c3RvcCBvZmZzZXQ9IjAuMjg2NCIgc3RvcC1jb2xvcj0iIzY2Qjg0OCIvPjxzdG9wIG9mZnNldD0iMC41OTY4IiBzdG9wLWNvbG9yPSIjNTRBMDQ0Ii8+PHN0b3Agb2Zmc2V0PSIwLjg2MjQiIHN0b3AtY29sb3I9IiM0MTg3M0YiLz48c3RvcCBvZmZzZXQ9IjEiIHN0b3AtY29sb3I9IiM0MTg3M0YiLz48L2xpbmVhckdyYWRpZW50PjxsaW5lYXJHcmFkaWVudCB4MT0iMTMwNi41NSIgeTE9IjQ1Mi41ODEiIHgyPSI5NTkuNzAzIiB5Mj0iMTE2MC4xNSIgZ3JhZGllbnRVbml0cz0idXNlclNwYWNlT25Vc2UiIHNwcmVhZE1ldGhvZD0icGFkIiBpZD0iZmlsbDEyIj48c3RvcCBvZmZzZXQ9IjAiIHN0b3AtY29sb3I9IiM0MTg3M0YiLz48c3RvcCBvZmZzZXQ9IjAuMzI4OCIgc3RvcC1jb2xvcj0iIzQxOEIzRCIvPjxzdG9wIG9mZnNldD0iMC42MzUyIiBzdG9wLWNvbG9yPSIjNDE5NjM3Ii8+PHN0b3Agb2Zmc2V0PSIwLjkzMTkiIHN0b3AtY29sb3I9IiMzRkE5MkQiLz48c3RvcCBvZmZzZXQ9IjEiIHN0b3AtY29sb3I9IiMzRkFFMkEiLz48L2xpbmVhckdyYWRpZW50PjwvZGVmcz48ZyBjbGlwLXBhdGg9InVybCgjY2xpcDApIiB0cmFuc2Zvcm09InRyYW5zbGF0ZSgtMjMxIDApIj48cGF0aCBkPSJNNTkwLjMwNiA4MjQuNzY0IDQwMS42NzYgODI0Ljc2NCA0MDEuNjc2IDE0MDkuMDYgMzI0LjYxNCAxNDA5LjA2IDMyNC42MTQgODI0Ljc2NCAxMzcuMTM0IDgyNC43NjQgMTM3LjEzNCA3NTUuNzU0IDU5MC4zMDYgNzU1Ljc1NCA1OTAuMzA2IDgyNC43NjRaTTk0NS43MTMgOTQyLjA4MyA3MzAuNjI4IDE0ODMuODJDNjkyLjY3MiAxNTgwLjQ0IDYzOC42MTQgMTYyOC43NSA1NjkuNjAzIDE2MjguNzUgNTUwLjA1IDE2MjguNzUgNTMzLjk0OCAxNjI2LjQ1IDUyMS4yOTUgMTYyM0w1MjEuMjk1IDE1NTYuMjhDNTM3LjM5OCAxNTYyLjAzIDU1Mi4zNSAxNTY0LjMzIDU2NS4wMDIgMTU2NC4zMyA2MDIuOTU4IDE1NjQuMzMgNjMwLjU2MiAxNTQxLjMzIDY1MC4xMTYgMTQ5Ni40N0w2ODYuOTIxIDE0MDcuOTEgNTA1LjE5MyA5NDIuMDgzIDU4OC4wMDYgOTQyLjA4MyA3MTQuNTI2IDEzMDAuOTRDNzE1LjY3NiAxMzA1LjU0IDcxOS4xMjYgMTMxNy4wNCA3MjMuNzI4IDEzMzYuNkw3MjYuMDI4IDEzMzYuNkM3MjcuMTc4IDEzMjkuNyA3MzAuNjI4IDEzMTguMTkgNzM1LjIyOSAxMzAyLjA5TDg2Ny41MDEgOTQyLjA4MyA5NDUuNzEzIDk0Mi4wODMgOTQ1LjcxMyA5NDIuMDgzWk0xMDY3LjYzIDEzNDEuMiAxMDY1LjMzIDEzNDEuMiAxMDY1LjMzIDE2MjMgOTkwLjU3MSAxNjIzIDk5MC41NzEgOTQyLjA4MyAxMDY1LjMzIDk0Mi4wODMgMTA2NS4zMyAxMDIzLjc1IDEwNjcuNjMgMTAyMy43NUMxMTA0LjQ0IDk2MS42MzcgMTE1OC41IDkzMC41ODEgMTIyOC42NiA5MzAuNTgxIDEyODguNDcgOTMwLjU4MSAxMzM1LjYzIDk1MS4yODYgMTM2OC45OCA5OTIuNjkxIDE0MDIuMzQgMTAzNC4xIDE0MTkuNTkgMTA5MC40NiAxNDE5LjU5IDExNjAuNjIgMTQxOS41OSAxMjM4LjgzIDE0MDAuMDMgMTMwMC45NCAxMzYyLjA4IDEzNDguMSAxMzI0LjEyIDEzOTUuMjYgMTI3Mi4zNiAxNDE4LjI2IDEyMDYuOCAxNDE4LjI2IDExNDguMTUgMTQyMC41NiAxMTAwLjk5IDEzOTQuMTEgMTA2Ny42MyAxMzQxLjJMMTA2Ny42MyAxMzQxLjJaTTEwNjYuNDggMTE1My43MiAxMDY2LjQ4IDEyMTkuMjhDMTA2Ni40OCAxMjU4LjM4IDEwNzkuMTMgMTI5MC41OSAxMTA0LjQ0IDEzMTcuMDQgMTEyOS43NCAxMzQzLjUgMTE2MC44IDEzNTcuMyAxMTk5LjkgMTM1Ny4zIDEyNDQuNzYgMTM1Ny4zIDEyODAuNDIgMTM0MC4wNSAxMzA2Ljg3IDEzMDUuNTQgMTMzMi4xOCAxMjcxLjA0IDEzNDQuODMgMTIyMi43MyAxMzQ0LjgzIDExNjAuNjIgMTM0NC44MyAxMTA4Ljg2IDEzMzMuMzIgMTA2Ny40NSAxMzA5LjE3IDEwMzguNyAxMjg1LjAyIDEwMDguNzkgMTI1Mi44MSA5OTQuOTkyIDEyMTEuNDEgOTk0Ljk5MiAxMTY3LjcgOTk0Ljk5MiAxMTMzLjE5IDEwMDkuOTQgMTEwNi43NCAxMDM5Ljg1IDEwNzkuMTMgMTA2OS43NSAxMDY2LjQ4IDExMDcuNzEgMTA2Ni40OCAxMTUzLjcyTDEwNjYuNDggMTE1My43MlpNMTg3Ny4zNiAxMTkzLjk3IDE1NDguNDEgMTE5My45N0MxNTQ5LjU2IDEyNDUuNzMgMTU2My4zNiAxMjg1Ljk5IDE1ODkuODIgMTMxNC43NCAxNjE2LjI3IDEzNDMuNSAxNjUzLjA4IDEzNTcuMyAxNzAwLjIzIDEzNTcuMyAxNzUzLjE0IDEzNTcuMyAxODAxLjQ1IDEzNDAuMDUgMTg0NS4xNSAxMzA1LjU0TDE4NDUuMTUgMTM3NS43QzE4MDMuNzYgMTQwNS42MSAxNzQ5LjY5IDE0MjAuNTYgMTY4Mi45OCAxNDIwLjU2IDE2MTcuNDIgMTQyMC41NiAxNTY1LjY2IDEzOTkuODYgMTUyNy43MSAxMzU3LjMgMTQ4OS43NSAxMzE0Ljc0IDE0NzEuMzUgMTI1NC45MyAxNDcxLjM1IDExNzkuMDIgMTQ3MS4zNSAxMTA2LjU2IDE0OTIuMDUgMTA0Ni43NSAxNTMzLjQ2IDEwMDEuODkgMTU3NC44NiA5NTUuODg2IDE2MjUuNDcgOTMyLjg4MiAxNjg2LjQzIDkzMi44ODIgMTc0Ny4zOSA5MzIuODgyIDE3OTQuNTYgOTUyLjQzNiAxODI3LjkxIDk5Mi42OTEgMTg2MS4yNyAxMDMxLjggMTg3OC41MSAxMDg3LjAxIDE4NzguNTEgMTE1Ny4xN0wxODc3LjM2IDExOTMuOTcgMTg3Ny4zNiAxMTkzLjk3Wk0xODAwLjI5IDExMzAuNzFDMTgwMC4yOSAxMDg3LjAxIDE3ODkuOTUgMTA1My42NSAxNzY5LjI0IDEwMjkuNSAxNzQ4LjU0IDEwMDUuMzQgMTcxOS43OSA5OTMuODQyIDE2ODQuMTMgOTkzLjg0MiAxNjQ4LjQ3IDk5My44NDIgMTYxOC41OCAxMDA2LjQ5IDE1OTQuNDIgMTAzMS44IDE1NzAuMjcgMTA1Ny4xIDE1NTQuMTYgMTA5MC40NiAxNTQ4LjQxIDExMzAuNzFMMTgwMC4yOSAxMTMwLjcxWk0xOTE0LjE3IDEzODYuMDUgMTkxNC4xNyAxMzM0LjNDMTk2MS4zMyAxMzY0LjIgMjAwOC40OCAxMzc5LjE1IDIwNTYuNzkgMTM3OS4xNSAyMTA3LjQgMTM3OS4xNSAyMTQ2LjUxIDEzNjguOCAyMTcyLjk1IDEzNDYuOTUgMjE5OS40MSAxMzI1LjEgMjIxMi4wNiAxMjk2LjM0IDIyMTIuMDYgMTI1OC4zOCAyMjEyLjA2IDEyMjUuMDMgMjIwMi44NiAxMTk4LjU3IDIxODUuNjIgMTE3Ny44NyAyMTY4LjM2IDExNTguMzIgMjEyOS4yNSAxMTMwLjcxIDIwNzAuNiAxMDk2LjIxIDIwMDMuODkgMTA1Ny4xIDE5NjIuNDggMTAyNC45IDE5NDUuMjIgOTk5LjU5MyAxOTI3Ljk4IDk3My4xMzkgMTkxOC43OCA5NDMuMjM0IDE5MTguNzggOTA5Ljg3OCAxOTE4Ljc4IDg2My44NzEgMTkzNy4xOCA4MjQuNzY0IDE5NzIuODIgNzkyLjU2IDIwMDguNDggNzYwLjM1NSAyMDU2Ljc5IDc0NC4yNTIgMjExNi42IDc0NC4yNTIgMjE1NS43MSA3NDQuMjUyIDIxOTQuODIgNzUxLjE1NCAyMjMyLjc3IDc2My44MDVMMjIzMi43NyA4MTAuOTYzQzIxOTQuODIgNzkzLjcxIDIxNTMuNDEgNzg0LjUwOSAyMTA5LjcxIDc4NC41MDkgMjA2NC44NSA3ODQuNTA5IDIwMzAuMzMgNzk2LjAxMSAyMDAzLjg5IDgxNy44NjUgMTk3Ny40MyA4NDAuODY3IDE5NjQuNzggODY4LjQ3MyAxOTY0Ljc4IDkwMi45NzcgMTk2NC43OCA5MzYuMzMyIDE5NzMuOTggOTYyLjc4OCAxOTkxLjIyIDk4Mi4zNCAyMDA4LjQ4IDEwMDEuODkgMjA0Ny41OSAxMDI5LjUgMjEwNi4yNCAxMDYyLjg1IDIxNjcuMiAxMDk3LjM2IDIyMDcuNDcgMTEyOC40MSAyMjI4LjE3IDExNTQuODcgMjI0OC44NiAxMTgxLjMyIDIyNTguMDcgMTIxMi4zOCAyMjU4LjA3IDEyNDguMDMgMjI1OC4wNyAxMjk4LjY0IDIyNDAuODIgMTMzOC45IDIyMDYuMzEgMTM3MS4xIDIxNzEuODEgMTQwMy4zMSAyMTIyLjM2IDE0MTguMjYgMjA1OS4wOSAxNDE4LjI2IDIwMzYuMDggMTQxOC4yNiAyMDEwLjc4IDE0MTQuODEgMTk4MC44OCAxNDA3LjkxIDE5NTAuOTcgMTQwMS4wMSAxOTI5LjEyIDEzOTUuMjYgMTkxNC4xNyAxMzg2LjA1TDE5MTQuMTcgMTM4Ni4wNVpNMjY0Ni44NCAxMzg4LjM1QzI2MTIuMzIgMTQwOS4wNiAyNTcwLjkzIDE0MjAuNTYgMjUyMi42MiAxNDIwLjU2IDI0NTkuMzYgMTQyMC41NiAyNDA3LjYgMTM5OC43MSAyMzY4LjQ5IDEzNTUgMjMyOS4zOCAxMzExLjI5IDIzMDkuODQgMTI1NC45MyAyMzA5Ljg0IDExODMuNjIgMjMwOS44NCAxMTEwLjAxIDIzMzEuNjkgMTA0OS4wNSAyMzc1LjM5IDEwMDEuODkgMjQxOS4xIDk1NC43MzYgMjQ3NS40NSA5MzAuNTgxIDI1NDQuNDcgOTMwLjU4MSAyNTgwLjEzIDkzMC41ODEgMjYxNC42MyA5MzcuNDgzIDI2NDcuOTggOTUyLjQzNUwyNjQ3Ljk4IDk5OS41OTNDMjYxNC42MyA5NzguODkgMjU3Ny44MiA5NjguNTM5IDI1MzguNzIgOTY4LjUzOSAyNDgzLjUxIDk2OC41MzkgMjQzOS44IDk4OC4wOTEgMjQwNS4zIDEwMjcuMiAyMzcwLjggMTA2Ni4zIDIzNTQuNjggMTExOC4wNiAyMzU0LjY4IDExODAuMTcgMjM1NC42OCAxMjQxLjEzIDIzNzAuOCAxMjg5LjQ0IDI0MDEuODUgMTMyNi4yNCAyNDMyLjkgMTM2My4wNSAyNDc0LjMxIDEzODEuNDUgMjUyNC45MSAxMzgxLjQ1IDI1NzIuMDcgMTM4MS40NSAyNjEyLjMyIDEzNjguOCAyNjQ2Ljg0IDEzNDQuNjVMMjY0Ni44NCAxMzg4LjM1IDI2NDYuODQgMTM4OC4zNVpNMjkyNS4xOSA5ODUuNzkxQzI5MTEuMzggOTc1LjQzOCAyODk1LjI4IDk3MC44MzggMjg3NS43MiA5NzAuODM4IDI4MzguOTEgOTcwLjgzOCAyODA3Ljg2IDk5MC4zOTIgMjc4My43MSAxMDI4LjM1IDI3NTguMzkgMTA2Ni4zIDI3NDYuOTEgMTEyMC4zNiAyNzQ2LjkxIDExOTAuNTJMMjc0Ni45MSAxNDEwLjIxIDI3MDUuNDkgMTQxMC4yMSAyNzA1LjQ5IDk0Mi4wODMgMjc0Ni45MSA5NDIuMDgzIDI3NDYuOTEgMTA0NS42IDI3NDkuMTkgMTA0NS42QzI3NTkuNTUgMTAwOS45NCAyNzc2LjgxIDk4Mi4zNCAyNzk5LjgxIDk2Mi43ODggMjgyMi44MiA5NDMuMjM0IDI4NDkuMjYgOTMyLjg4MiAyODgwLjMzIDkzMi44ODIgMjg5Ny41NyA5MzIuODgyIDI5MTMuNjggOTM1LjE4MyAyOTI2LjMzIDk0MC45MzRMMjkyNi4zMyA5ODUuNzkxIDI5MjUuMTkgOTg1Ljc5MSAyOTI1LjE5IDk4NS43OTFaTTI5OTEuOSA4MjQuNzY0QzI5ODIuNjggODI0Ljc2NCAyOTc0LjY0IDgyMS4zMTQgMjk2Ny43NCA4MTQuNDEzIDI5NjAuODMgODA3LjUxMiAyOTU3LjM4IDc5OS40NjEgMjk1Ny4zOCA3ODkuMTEgMjk1Ny4zOCA3NzguNzU4IDI5NjAuODMgNzcwLjcwNiAyOTY3Ljc0IDc2NC45NTUgMjk3NC42NCA3NTkuMjA0IDI5ODIuNjggNzU1Ljc1NCAyOTkxLjkgNzU1Ljc1NCAzMDAxLjEgNzU1Ljc1NCAzMDA5LjE0IDc1OS4yMDQgMzAxNy4yIDc2NC45NTUgMzAyNC4wOSA3NzAuNzA2IDMwMjcuNTQgNzc4Ljc1OCAzMDI3LjU0IDc4OS4xMSAzMDI3LjU0IDc5OC4zMTEgMzAyNC4wOSA4MDcuNTEyIDMwMTcuMiA4MTQuNDEzIDMwMDkuMTQgODIxLjMxNCAzMDAxLjEgODI0Ljc2NCAyOTkxLjkgODI0Ljc2NFpNMjk3MS4xOSAxNDA5LjA2IDI5NzEuMTkgOTQyLjA4MyAzMDEyLjU5IDk0Mi4wODMgMzAxMi41OSAxNDA5LjA2IDI5NzEuMTkgMTQwOS4wNlpNMzE1Ni4zNyAxMzI2LjI0IDMxNTQuMDcgMTMyNi4yNCAzMTU0LjA3IDE2MjQuMTQgMzExMi42NSAxNjI0LjE0IDMxMTIuNjUgOTQyLjA4MyAzMTU0LjA3IDk0Mi4wODMgMzE1NC4wNyAxMDM4LjcgMzE1Ni4zNyAxMDM4LjdDMzE3My42MSAxMDA0LjE5IDMxOTYuNjIgOTc3LjczOSAzMjI3LjY3IDk1OS4zMzYgMzI1OC43NCA5NDAuOTM0IDMyOTMuMjQgOTMxLjczMiAzMzMwLjA0IDkzMS43MzIgMzM4OS44NiA5MzEuNzMyIDM0MzUuODYgOTUyLjQzNSAzNDY5LjIyIDk5Mi42OTEgMzUwMi41NyAxMDM0LjEgMzUxOC42NyAxMDg5LjMxIDM1MTguNjcgMTE1OS40NyAzNTE4LjY3IDEyMzcuNjggMzQ5OS4xMiAxMzAwLjk0IDM0NjEuMTYgMTM0OS4yNSAzNDIzLjIxIDEzOTcuNTYgMzM3Mi42IDE0MjEuNzEgMzMxMC41IDE0MjEuNzEgMzI0MS40OCAxNDIwLjU2IDMxODkuNzIgMTM4OS41IDMxNTYuMzcgMTMyNi4yNFpNMzE1NC4wNyAxMTUyLjU3IDMxNTQuMDcgMTIxMS4yM0MzMTU0LjA3IDEyNTguMzggMzE2OS4wMiAxMjk4LjY0IDMxOTcuNzcgMTMzMiAzMjI3LjY3IDEzNjUuMzUgMzI2NS42NCAxMzgyLjYgMzMxMy45NSAxMzgyLjYgMzM2MS4wOSAxMzgyLjYgMzQwMC4yIDEzNjEuOSAzNDMwLjExIDEzMjEuNjQgMzQ2MC4wMiAxMjgwLjI0IDM0NzQuOTcgMTIyNy4zMyAzNDc0Ljk3IDExNjAuNjIgMzQ3NC45NyAxMTAxLjk2IDM0NjEuMTYgMTA1NS45NSAzNDMzLjU2IDEwMjEuNDUgMzQwNS45NSA5ODYuOTQgMzM3MC4yOSA5NjkuNjg3IDMzMjQuMjkgOTY5LjY4NyAzMjcwLjIzIDk2OS42ODcgMzIyNy42NyA5ODguMDkxIDMxOTcuNzcgMTAyNC45IDMxNjcuODcgMTA2MS43IDMxNTQuMDcgMTEwMy4xMSAzMTU0LjA3IDExNTIuNTdaTTM3NzIuODYgMTQwMi4xNkMzNzUxLjAxIDE0MTIuNTEgMzczMC4zMSAxNDE3LjExIDM3MTEuOSAxNDE3LjExIDM2NDIuODkgMTQxNy4xMSAzNjA4LjM5IDEzNzUuNyAzNjA4LjM5IDEyOTIuODlMMzYwOC4zOSA5ODEuMTg5IDM1MjQuNDIgOTgxLjE4OSAzNTI0LjQyIDk0My4yMzQgMzYwOC4zOSA5NDMuMjM0IDM2MDguMzkgODIxLjMxNCAzNjI5LjEgODE0LjQxMyAzNjQ5LjggODA3LjUxMiAzNjQ5LjggOTQzLjIzNCAzNzcyLjg2IDk0My4yMzQgMzc3Mi44NiA5ODEuMTg5IDM2NDkuOCA5ODEuMTg5IDM2NDkuOCAxMjg5LjQ0QzM2NDkuOCAxMzIxLjY0IDM2NTQuMzkgMTM0NC42NSAzNjY0Ljc0IDEzNTkuNiAzNjc1LjEgMTM3NC41NSAzNjkyLjM2IDEzODEuNDUgMzcxNi41MSAxMzgxLjQ1IDM3MzMuNzUgMTM4MS40NSAzNzUyLjE2IDEzNzUuNyAzNzcyLjg2IDEzNjQuMkwzNzcyLjg2IDE0MDIuMTYgMzc3Mi44NiAxNDAyLjE2WiIgZmlsbD0iIzAwN0FDQyIgdHJhbnNmb3JtPSJtYXRyaXgoMS4wMDAxNSAwIDAgMSAyMzEgMCkiLz48cmVjdCB4PSIzMzMiIHk9IjYxOSIgd2lkdGg9IjM3NDciIGhlaWdodD0iMTA3NiIgZmlsbD0iI0ZGRkZGRiIvPjxnIGNsaXAtcGF0aD0idXJsKCNjbGlwMSkiPjxnIGNsaXAtcGF0aD0idXJsKCNjbGlwMikiPjxnIGNsaXAtcGF0aD0idXJsKCNjbGlwMykiPjxwYXRoIGQ9Ik0xMjYxLjk5IDE1NjMuOTJDMTI1My4zMyAxNTYzLjkyIDEyNDUuMjUgMTU2MS42MSAxMjM3Ljc0IDE1NTcuNTdMMTE2MC45NiAxNTExLjk2QzExNDkuNDIgMTUwNS42MSAxMTU1LjE5IDE1MDMuMyAxMTU4LjY1IDE1MDIuMTUgMTE3NC4yNCAxNDk2Ljk1IDExNzcuMTMgMTQ5NS44IDExOTMuMjkgMTQ4Ni41NiAxMTk1LjAyIDE0ODUuNDEgMTE5Ny4zMyAxNDg1Ljk4IDExOTkuMDYgMTQ4Ny4xNEwxMjU3Ljk1IDE1MjIuMzVDMTI2MC4yNiAxNTIzLjUxIDEyNjMuMTQgMTUyMy41MSAxMjY0Ljg4IDE1MjIuMzVMMTQ5NS4yMiAxMzg5QzE0OTcuNTMgMTM4Ny44NCAxNDk4LjY5IDEzODUuNTMgMTQ5OC42OSAxMzgyLjY1TDE0OTguNjkgMTExNi41MUMxNDk4LjY5IDExMTMuNjIgMTQ5Ny41MyAxMTExLjMxIDE0OTUuMjIgMTExMC4xNkwxMjY0Ljg4IDk3Ny4zNzhDMTI2Mi41NyA5NzYuMjI0IDEyNTkuNjggOTc2LjIyNCAxMjU3Ljk1IDk3Ny4zNzhMMTAyNy42IDExMTAuMTZDMTAyNS4yOSAxMTExLjMxIDEwMjQuMTQgMTExNC4yIDEwMjQuMTQgMTExNi41MUwxMDI0LjE0IDEzODIuNjVDMTAyNC4xNCAxMzg0Ljk2IDEwMjUuMjkgMTM4Ny44NCAxMDI3LjYgMTM4OUwxMDkwLjUzIDE0MjUuMzdDMTEyNC41OSAxNDQyLjY5IDExNDUuOTUgMTQyMi40OCAxMTQ1Ljk1IDE0MDIuMjhMMTE0NS45NSAxMTM5LjZDMTE0NS45NSAxMTM2LjE0IDExNDguODQgMTEzMi42NyAxMTUyLjg4IDExMzIuNjdMMTE4Mi4zMiAxMTMyLjY3QzExODUuNzkgMTEzMi42NyAxMTg5LjI1IDExMzUuNTYgMTE4OS4yNSAxMTM5LjZMMTE4OS4yNSAxNDAyLjI4QzExODkuMjUgMTQ0Ny44OCAxMTY0LjQzIDE0NzQuNDQgMTEyMS4xMyAxNDc0LjQ0IDExMDcuODUgMTQ3NC40NCAxMDk3LjQ2IDE0NzQuNDQgMTA2OC4wMiAxNDYwLjAxTDEwMDcuNCAxNDI1LjM3Qzk5Mi4zODggMTQxNi43MSA5ODMuMTUxIDE0MDAuNTQgOTgzLjE1MSAxMzgzLjIyTDk4My4xNTEgMTExNy4wOUM5ODMuMTUxIDEwOTkuNzcgOTkyLjM4OCAxMDgzLjYgMTAwNy40IDEwNzQuOTRMMTIzNy43NCA5NDEuNTg1QzEyNTIuMTggOTMzLjUwMyAxMjcxLjggOTMzLjUwMyAxMjg2LjI0IDk0MS41ODVMMTUxNi41OCAxMDc0Ljk0QzE1MzEuNTkgMTA4My42IDE1NDAuODMgMTA5OS43NyAxNTQwLjgzIDExMTcuMDlMMTU0MC44MyAxMzgzLjIyQzE1NDAuODMgMTQwMC41NCAxNTMxLjU5IDE0MTYuNzEgMTUxNi41OCAxNDI1LjM3TDEyODYuMjQgMTU1OC43M0MxMjc5LjMxIDE1NjEuNjEgMTI3MC42NSAxNTYzLjkyIDEyNjEuOTkgMTU2My45MloiIGZpbGw9IiM2OTlGNjMiIHRyYW5zZm9ybT0ibWF0cml4KDEgMCAwIDEuMDAwMjUgOTIzIDcxLjYzMzIpIi8+PHBhdGggZD0iTTEzMzMuNTggMTM4MC45MkMxMjMyLjU1IDEzODAuOTIgMTIxMS43NiAxMzM0LjczIDEyMTEuNzYgMTI5NS40NyAxMjExLjc2IDEyOTIuMDEgMTIxNC42NSAxMjg4LjU1IDEyMTguNjkgMTI4OC41NUwxMjQ4LjcxIDEyODguNTVDMTI1Mi4xOCAxMjg4LjU1IDEyNTUuMDYgMTI5MC44NiAxMjU1LjA2IDEyOTQuMzIgMTI1OS42OCAxMzI0LjkyIDEyNzIuOTYgMTMzOS45MyAxMzM0LjE1IDEzMzkuOTMgMTM4Mi42NSAxMzM5LjkzIDE0MDMuNDMgMTMyOC45NiAxNDAzLjQzIDEzMDIuOTggMTQwMy40MyAxMjg3Ljk3IDEzOTcuNjYgMTI3NyAxMzIyLjAzIDEyNjkuNDkgMTI1OS4xIDEyNjMuMTQgMTIxOS44NSAxMjQ5LjI5IDEyMTkuODUgMTE5OS4wNiAxMjE5Ljg1IDExNTIuMyAxMjU5LjEgMTEyNC41OSAxMzI0LjkyIDExMjQuNTkgMTM5OC44MSAxMTI0LjU5IDE0MzUuMTggMTE0OS45OSAxNDM5LjggMTIwNS40MSAxNDM5LjggMTIwNy4xNSAxNDM5LjIyIDEyMDguODggMTQzOC4wNyAxMjEwLjYxIDE0MzYuOTEgMTIxMS43NiAxNDM1LjE4IDEyMTIuOTIgMTQzMy40NSAxMjEyLjkyTDE0MDIuODUgMTIxMi45MkMxMzk5Ljk3IDEyMTIuOTIgMTM5Ny4wOCAxMjEwLjYxIDEzOTYuNSAxMjA3LjcyIDEzODkuNTcgMTE3NS45NyAxMzcxLjY4IDExNjUuNTggMTMyNC4zNCAxMTY1LjU4IDEyNzEuMjMgMTE2NS41OCAxMjY0Ljg4IDExODQuMDUgMTI2NC44OCAxMTk3LjkxIDEyNjQuODggMTIxNC42NSAxMjcyLjM4IDEyMTkuODUgMTM0My45NyAxMjI5LjA4IDE0MTQuOTggMTIzOC4zMiAxNDQ4LjQ2IDEyNTEuNiAxNDQ4LjQ2IDEzMDEuMjUgMTQ0OC40NiAxMzUyLjA1IDE0MDYuMzIgMTM4MC45MiAxMzMzLjU4IDEzODAuOTJaIiBmaWxsPSIjNjk5RjYzIiB0cmFuc2Zvcm09Im1hdHJpeCgxIDAgMCAxLjAwMDI1IDkyMyA3MS42MzMyKSIvPjxwYXRoIGQ9Ik0xNjY2LjEgMTEwMS41QzE2NjYuMSAxMTI1Ljc1IDE2NDUuOSAxMTQ1Ljk1IDE2MjEuNjUgMTE0NS45NSAxNTk3LjQgMTE0NS45NSAxNTc3LjIgMTEyNi4zMiAxNTc3LjIgMTEwMS41IDE1NzcuMiAxMDc2LjEgMTU5Ny45OCAxMDU3LjA1IDE2MjEuNjUgMTA1Ny4wNSAxNjQ1LjMyIDEwNTcuMDUgMTY2Ni4xIDEwNzYuNjcgMTY2Ni4xIDExMDEuNVpNMTU4NC4xMyAxMTAxLjVDMTU4NC4xMyAxMTIyLjI4IDE2MDAuODcgMTEzOS4wMiAxNjIxLjA3IDExMzkuMDIgMTY0MS44NiAxMTM5LjAyIDE2NTguNiAxMTIxLjcgMTY1OC42IDExMDEuNSAxNjU4LjYgMTA4MC43MiAxNjQxLjg2IDEwNjQuNTUgMTYyMS4wNyAxMDY0LjU1IDE2MDEuNDUgMTA2NC41NSAxNTg0LjEzIDEwODAuNzIgMTU4NC4xMyAxMTAxLjVaTTE2MDQuOTEgMTA3Ni42NyAxNjIyLjIzIDEwNzYuNjdDMTYyOCAxMDc2LjY3IDE2MzkuNTUgMTA3Ni42NyAxNjM5LjU1IDEwODkuOTUgMTYzOS41NSAxMDk5LjE5IDE2MzMuNzcgMTEwMC45MiAxNjMwLjMxIDExMDIuMDggMTYzNy4yNCAxMTAyLjY1IDE2MzcuODIgMTEwNy4yNyAxNjM4LjM5IDExMTMuNjIgMTYzOC45NyAxMTE3LjY2IDE2MzkuNTUgMTEyNC41OSAxNjQwLjcgMTEyNi45TDE2MzAuMzEgMTEyNi45QzE2MzAuMzEgMTEyNC41OSAxNjI4LjU4IDExMTEuODkgMTYyOC41OCAxMTExLjMxIDE2MjggMTEwOC40MyAxNjI2Ljg1IDExMDcuMjcgMTYyMy4zOCAxMTA3LjI3TDE2MTQuNzIgMTEwNy4yNyAxNjE0LjcyIDExMjcuNDggMTYwNC45MSAxMTI3LjQ4IDE2MDQuOTEgMTA3Ni42N1pNMTYxNC4xNSAxMDk4LjYxIDE2MjEuNjUgMTA5OC42MUMxNjI4IDEwOTguNjEgMTYyOS4xNiAxMDkzLjk5IDE2MjkuMTYgMTA5MS42OCAxNjI5LjE2IDEwODQuNzYgMTYyNC41NCAxMDg0Ljc2IDE2MjEuNjUgMTA4NC43NkwxNjEzLjU3IDEwODQuNzYgMTYxMy41NyAxMDk4LjYxWiIgZmlsbD0iIzY5OUY2MyIgdHJhbnNmb3JtPSJtYXRyaXgoMSAwIDAgMS4wMDAyNSA5MjMgNzEuNjMzMikiLz48cGF0aCBkPSJNNTQ3Ljg2MyA1MjMuMDM5QzU0Ny44NjMgNTEyLjY0NyA1NDIuMDkgNTAyLjgzMyA1MzIuODUzIDQ5Ny42MzdMMjg4LjY1MyAzNTYuMTk4QzI4NC42MTIgMzUzLjg4OCAyNzkuOTkzIDM1Mi43MzQgMjc1LjM3NSAzNTIuMTU2IDI3NC43OTcgMzUyLjE1NiAyNzMuMDY2IDM1Mi4xNTYgMjczLjA2NiAzNTIuMTU2IDI2OC40NDcgMzUyLjE1NiAyNjMuODI5IDM1My44ODggMjU5Ljc4OCAzNTYuMTk4TDE1LjAwOTkgNDk3LjA2QzUuNzczMDYgNTAyLjI1NiAwIDUxMi4wNyAwIDUyMy4wMzlMMC41NzczMDYgOTAxLjc1MUMwLjU3NzMwNiA5MDYuOTQ3IDMuNDYzODMgOTEyLjE0MyA4LjA4MjI4IDkxNC40NTIgMTIuNzAwNyA5MTcuMzM5IDE4LjQ3MzggOTE3LjMzOSAyMi41MTQ5IDkxNC40NTJMMTY3Ljk5NiA4MzEuMzJDMTc3LjIzMyA4MjYuMTI0IDE4My4wMDYgODE2LjMxIDE4My4wMDYgODA1LjkxOUwxODMuMDA2IDYyOC42ODZDMTgzLjAwNiA2MTguMjk0IDE4OC43NzkgNjA4LjQ4IDE5OC4wMTYgNjAzLjI4NEwyNTkuNzg4IDU2Ny40OTFDMjY0LjQwNiA1NjQuNjA1IDI2OS42MDIgNTYzLjQ1IDI3NC43OTcgNTYzLjQ1IDI3OS45OTMgNTYzLjQ1IDI4NS4xODkgNTY0LjYwNSAyODkuMjMgNTY3LjQ5MUwzNTEuMDAyIDYwMy4yODRDMzYwLjIzOSA2MDguNDggMzY2LjAxMiA2MTguMjk0IDM2Ni4wMTIgNjI4LjY4NkwzNjYuMDEyIDgwNS45MTlDMzY2LjAxMiA4MTYuMzEgMzcxLjc4NSA4MjYuMTI0IDM4MS4wMjIgODMxLjMyTDUyNS4zNDggOTE0LjQ1MkM1MjkuOTY3IDkxNy4zMzkgNTM1Ljc0IDkxNy4zMzkgNTQwLjM1OCA5MTQuNDUyIDU0NC45NzcgOTEyLjE0MyA1NDcuODYzIDkwNi45NDcgNTQ3Ljg2MyA5MDEuNzUxTDU0Ny44NjMgNTIzLjAzOVoiIGZpbGw9IiMzMzMzMzMiIGZpbGwtcnVsZT0iZXZlbm9kZCIgdHJhbnNmb3JtPSJtYXRyaXgoMSAwIDAgMS4wMDAyNSA5MjMgNzEuNjMzMikiLz48cGF0aCBkPSJNMTcyNC40MSAxLjczMTkyQzE3MTkuNzktMC41NzczMDYgMTcxNC4wMi0wLjU3NzMwNiAxNzA5Ljk4IDEuNzMxOTIgMTcwNS4zNiA0LjYxODQ0IDE3MDIuNDcgOS4yMzY4OSAxNzAyLjQ3IDE0LjQzMjZMMTcwMi40NyAzODkuNjgxQzE3MDIuNDcgMzkzLjE0NSAxNzAwLjc0IDM5Ni42MDkgMTY5Ny4yOCAzOTguOTE4IDE2OTMuODEgNDAwLjY1IDE2OTAuMzUgNDAwLjY1IDE2ODYuODkgMzk4LjkxOEwxNjI1LjY5IDM2My43MDNDMTYxNi40NiAzNTguNTA3IDE2MDUuNDkgMzU4LjUwNyAxNTk2LjI1IDM2My43MDNMMTM1MS40NyA1MDUuMTQyQzEzNDIuMjQgNTEwLjMzOCAxMzM2LjQ2IDUyMC4xNTIgMTMzNi40NiA1MzAuNTQ0TDEzMzYuNDYgODEyLjg0NkMxMzM2LjQ2IDgyMy4yMzggMTM0Mi4yNCA4MzMuMDUyIDEzNTEuNDcgODM4LjI0OEwxNTk2LjI1IDk3OS42ODhDMTYwNS40OSA5ODQuODgzIDE2MTYuNDYgOTg0Ljg4MyAxNjI1LjY5IDk3OS42ODhMMTg3MC40NyA4MzguMjQ4QzE4NzkuNzEgODMzLjA1MiAxODg1LjQ4IDgyMy4yMzggMTg4NS40OCA4MTIuODQ2TDE4ODUuNDggMTA5LjExMUMxODg1LjQ4IDk4LjE0MiAxODc5LjcxIDg4LjMyNzggMTg3MC40NyA4My4xMzJMMTcyNC40MSAxLjczMTkyWk0xNzAxLjkgNzE5LjlDMTcwMS45IDcyMi43ODcgMTcwMC43NCA3MjUuMDk2IDE2OTguNDMgNzI2LjI1TDE2MTQuNzIgNzc0Ljc0NEMxNjEyLjQxIDc3NS44OTkgMTYwOS41MyA3NzUuODk5IDE2MDcuMjIgNzc0Ljc0NEwxNTIzLjUxIDcyNi4yNUMxNTIxLjIgNzI1LjA5NiAxNTIwLjA1IDcyMi4yMDkgMTUyMC4wNSA3MTkuOUwxNTIwLjA1IDYyMi45MTNDMTUyMC4wNSA2MjAuMDI2IDE1MjEuMiA2MTcuNzE3IDE1MjMuNTEgNjE2LjU2MkwxNjA3LjIyIDU2OC4wNjlDMTYwOS41MyA1NjYuOTE0IDE2MTIuNDEgNTY2LjkxNCAxNjE0LjcyIDU2OC4wNjlMMTY5OC40MyA2MTYuNTYyQzE3MDAuNzQgNjE3LjcxNyAxNzAxLjkgNjIwLjYwNCAxNzAxLjkgNjIyLjkxM0wxNzAxLjkgNzE5LjlaIiBmaWxsPSIjMzMzMzMzIiBmaWxsLXJ1bGU9ImV2ZW5vZGQiIHRyYW5zZm9ybT0ibWF0cml4KDEgMCAwIDEuMDAwMjUgOTIzIDcxLjYzMzIpIi8+PHBhdGggZD0iTTI1MzguOTkgNjIwLjYwNEMyNTQ4LjIzIDYxNS40MDggMjU1My40MiA2MDUuNTk0IDI1NTMuNDIgNTk1LjIwMkwyNTUzLjQyIDUyNi41MDNDMjU1My40MiA1MTYuMTExIDI1NDcuNjUgNTA2LjI5NyAyNTM4Ljk5IDUwMS4xMDFMMjI5NS45NCAzNjAuMjM5QzIyODYuNzEgMzU1LjA0MyAyMjc1Ljc0IDM1NS4wNDMgMjI2Ni41IDM2MC4yMzlMMjAyMS43MiA1MDEuNjc5QzIwMTIuNDkgNTA2Ljg3NCAyMDA2LjcxIDUxNi42ODkgMjAwNi43MSA1MjcuMDhMMjAwNi43MSA4MDkuMzgyQzIwMDYuNzEgODE5Ljc3NCAyMDEyLjQ5IDgyOS41ODggMjAyMS43MiA4MzQuNzg0TDIyNjQuNzcgOTczLjMzN0MyMjc0LjAxIDk3OC41MzMgMjI4NC45OCA5NzguNTMzIDIyOTMuNjQgOTczLjMzN0wyNDQwLjg1IDg5MS4zNkMyNDQ1LjQ3IDg4OS4wNTEgMjQ0OC4zNSA4ODMuODU1IDI0NDguMzUgODc4LjY1OSAyNDQ4LjM1IDg3My40NjMgMjQ0NS40NyA4NjguMjY4IDI0NDAuODUgODY1Ljk1OEwyMTk0LjkyIDcyNC41MTlDMjE5MC4zIDcyMS42MzIgMjE4Ny40MSA3MTcuMDE0IDIxODcuNDEgNzExLjgxOEwyMTg3LjQxIDYyMy40OUMyMTg3LjQxIDYxOC4yOTQgMjE5MC4zIDYxMy4wOTkgMjE5NC45MiA2MTAuNzg5TDIyNzEuNyA1NjYuOTE0QzIyNzYuMzIgNTY0LjAyOCAyMjgyLjA5IDU2NC4wMjggMjI4Ni43MSA1NjYuOTE0TDIzNjMuNDkgNjEwLjc4OUMyMzY4LjExIDYxMy42NzYgMjM3MC45OSA2MTguMjk0IDIzNzAuOTkgNjIzLjQ5TDIzNzAuOTkgNjkyLjc2N0MyMzcwLjk5IDY5Ny45NjIgMjM3My44OCA3MDMuMTU4IDIzNzguNSA3MDUuNDY3IDIzODMuMTIgNzA4LjM1NCAyMzg4Ljg5IDcwOC4zNTQgMjM5My41MSA3MDUuNDY3TDI1MzguOTkgNjIwLjYwNFoiIGZpbGw9IiMzMzMzMzMiIGZpbGwtcnVsZT0iZXZlbm9kZCIgdHJhbnNmb3JtPSJtYXRyaXgoMSAwIDAgMS4wMDAyNSA5MjMgNzEuNjMzMikiLz48cGF0aCBkPSJNMjI3Ny40NyA2MDcuMzI2QzIyNzkuMiA2MDYuMTcxIDIyODEuNTEgNjA2LjE3MSAyMjgzLjI0IDYwNy4zMjZMMjMzMC4wMSA2MzQuNDU5QzIzMzEuNzQgNjM1LjYxMyAyMzMyLjg5IDYzNy4zNDUgMjMzMi44OSA2MzkuNjU1TDIzMzIuODkgNjkzLjkyMUMyMzMyLjg5IDY5Ni4yMzEgMjMzMS43NCA2OTcuOTYyIDIzMzAuMDEgNjk5LjExN0wyMjgzLjI0IDcyNi4yNUMyMjgxLjUxIDcyNy40MDUgMjI3OS4yIDcyNy40MDUgMjI3Ny40NyA3MjYuMjVMMjIzMC43MSA2OTkuMTE3QzIyMjguOTggNjk3Ljk2MiAyMjI3LjgyIDY5Ni4yMzEgMjIyNy44MiA2OTMuOTIxTDIyMjcuODIgNjM5LjY1NUMyMjI3LjgyIDYzNy4zNDUgMjIyOC45OCA2MzUuNjEzIDIyMzAuNzEgNjM0LjQ1OUwyMjc3LjQ3IDYwNy4zMjZaIiBmaWxsPSIjNjk5RjYzIiBmaWxsLXJ1bGU9ImV2ZW5vZGQiIHRyYW5zZm9ybT0ibWF0cml4KDEgMCAwIDEuMDAwMjUgOTIzIDcxLjYzMzIpIi8+PHBhdGggZD0iTTk1Ny4xNzMgMzYxLjM5M0M5NDcuOTM2IDM1Ni4xOTggOTM2Ljk2NyAzNTYuMTk4IDkyNy43MyAzNjEuMzkzTDY4NC42ODQgNTAxLjY3OUM2NzUuNDQ4IDUwNi44NzQgNjcwLjI1MiA1MTYuNjg5IDY3MC4yNTIgNTI3LjA4TDY3MC4yNTIgODA4LjIyOEM2NzAuMjUyIDgxOC42MTkgNjc2LjAyNSA4MjguNDM0IDY4NC42ODQgODMzLjYyOUw5MjcuNzMgOTczLjkxNUM5MzYuOTY3IDk3OS4xMSA5NDcuOTM2IDk3OS4xMSA5NTcuMTczIDk3My45MTVMMTIwMC4yMiA4MzMuNjI5QzEyMDkuNDYgODI4LjQzNCAxMjE0LjY1IDgxOC42MTkgMTIxNC42NSA4MDguMjI4TDEyMTQuNjUgNTI3LjA4QzEyMTQuNjUgNTE2LjY4OSAxMjA4Ljg4IDUwNi44NzQgMTIwMC4yMiA1MDEuNjc5TDk1Ny4xNzMgMzYxLjM5M1oiIGZpbGw9InVybCgjZmlsbDQpIiBmaWxsLXJ1bGU9ImV2ZW5vZGQiIHRyYW5zZm9ybT0ibWF0cml4KDEgMCAwIDEuMDAwMjUgOTIzIDcxLjYzMzIpIi8+PGcgY2xpcC1wYXRoPSJ1cmwoI2NsaXA1KSI+PHBhdGggZD0iTTEyMDAuOCA1MDEuNjc5IDk1Ni41OTUgMzYxLjM5M0M5NTQuMjg2IDM2MC4yMzkgOTUxLjQgMzU5LjA4NCA5NDkuMDkgMzU4LjUwN0w2NzUuNDQ4IDgyNi43MDJDNjc3Ljc1NyA4MjkuNTg4IDY4MC42NDMgODMxLjg5NyA2ODMuNTMgODMzLjYyOUw5MjcuNzMgOTczLjkxNUM5MzQuNjU4IDk3Ny45NTYgOTQyLjc0IDk3OS4xMSA5NTAuMjQ1IDk3Ni44MDFMMTIwNy4xNSA1MDYuODc0QzEyMDUuNDEgNTA0LjU2NSAxMjAzLjEgNTAyLjgzMyAxMjAwLjggNTAxLjY3OVoiIGZpbGw9InVybCgjZmlsbDYpIiB0cmFuc2Zvcm09Im1hdHJpeCgxIDAgMCAxLjAwMDI1IDkyMyA3MS42MzMyKSIvPjwvZz48ZyBjbGlwLXBhdGg9InVybCgjY2xpcDcpIj48cGF0aCBkPSJNOTE5LjY0OCAzMTAuMDEzIDkxNi4xODQgMzExLjc0NSA5MjAuODAyIDMxMS43NDVaIiBmaWxsPSJ1cmwoI2ZpbGw4KSIgdHJhbnNmb3JtPSJtYXRyaXgoMSAwIDAgMS4wMDAyNSA5MjMgNzEuNjMzMikiLz48cGF0aCBkPSJNMTIwMC44IDgzMy42MjlDMTIwNy43MiA4MjkuNTg4IDEyMTIuOTIgODIyLjY2IDEyMTUuMjMgODE1LjE1Nkw5NDcuOTM2IDM1Ny45MjlDOTQxLjAwOCAzNTYuNzc1IDkzMy41MDMgMzU3LjM1MiA5MjcuMTUzIDM2MS4zOTNMNjg0LjY4NCA1MDEuMTAxIDk0Ni4yMDQgOTc3Ljk1NkM5NDkuNjY4IDk3Ny4zNzggOTUzLjcwOSA5NzYuMjI0IDk1Ny4xNzMgOTc0LjQ5MkwxMjAwLjggODMzLjYyOVoiIGZpbGw9InVybCgjZmlsbDkpIiB0cmFuc2Zvcm09Im1hdHJpeCgxIDAgMCAxLjAwMDI1IDkyMyA3MS42MzMyKSIvPjxwYXRoIGQ9Ik0xMjIzLjg5IDgyOS4wMTEgMTIyMi4xNiA4MjYuMTI0IDEyMjIuMTYgODMwLjE2NVoiIGZpbGw9InVybCgjZmlsbDEwKSIgdHJhbnNmb3JtPSJtYXRyaXgoMSAwIDAgMS4wMDAyNSA5MjMgNzEuNjMzMikiLz48cGF0aCBkPSJNMTIwMC44IDgzMy42MjkgOTU3LjE3MyA5NzMuOTE1Qzk1My43MDkgOTc1LjY0NiA5NTAuMjQ1IDk3Ni44MDEgOTQ2LjIwNCA5NzcuMzc4TDk1MS45NzcgOTg2LjAzOCAxMjIzLjMxIDgyOS41ODggMTIyMy4zMSA4MjYuMTI0IDEyMTUuODEgODE0LjU3OEMxMjE0LjA3IDgyMi42NiAxMjA4LjMgODI5LjU4OCAxMjAwLjggODMzLjYyOVoiIGZpbGw9InVybCgjZmlsbDExKSIgdHJhbnNmb3JtPSJtYXRyaXgoMSAwIDAgMS4wMDAyNSA5MjMgNzEuNjMzMikiLz48cGF0aCBkPSJNMTIwMC44IDgzMy42MjkgOTU3LjE3MyA5NzMuOTE1Qzk1My43MDkgOTc1LjY0NiA5NTAuMjQ1IDk3Ni44MDEgOTQ2LjIwNCA5NzcuMzc4TDk1MS45NzcgOTg2LjAzOCAxMjIzLjMxIDgyOS41ODggMTIyMy4zMSA4MjYuMTI0IDEyMTUuODEgODE0LjU3OEMxMjE0LjA3IDgyMi42NiAxMjA4LjMgODI5LjU4OCAxMjAwLjggODMzLjYyOVoiIGZpbGw9InVybCgjZmlsbDEyKSIgdHJhbnNmb3JtPSJtYXRyaXgoMSAwIDAgMS4wMDAyNSA5MjMgNzEuNjMzMikiLz48L2c+PHBhdGggZD0iTTUwLjgwMjkgMjA1Ny41MkM1Ny4xNTMzIDIwODEuNzYgNjYuOTY3NSAyMTAzLjEyIDgwLjI0NTUgMjEyMS4wMiA5My41MjM1IDIxMzguOTIgMTEwLjI2NSAyMTUzLjM1IDEzMS4wNDggMjE2My43NCAxNTEuODMxIDIxNzQuMTMgMTc3LjIzMyAyMTc5LjMzIDIwNy4yNTMgMjE3OS4zMyAyNTEuNzA1IDIxNzkuMzMgMjg4LjY1MyAyMTY3Ljc4IDMxOC4wOTUgMjE0NC4xMSAzNDcuNTM4IDIxMjEuMDIgMzY1LjQzNCAyMDg1LjgxIDM3Mi45MzkgMjAzOS4wNEwzODkuMTA0IDIwMzkuMDRDMzgzLjMzMSAyMDg4LjExIDM2My43MDMgMjEyNi43OSAzMzAuNzk2IDIxNTMuOTMgMjk3Ljg5IDIxODEuMDYgMjU3LjQ3OCAyMTk0LjM0IDIwOC45ODUgMjE5NC4zNCAxNzYuMDc4IDIxOTQuOTIgMTQ3Ljc5IDIxODkuNzIgMTI0LjY5OCAyMTc4Ljc1IDEwMS42MDYgMjE2Ny43OCA4Mi41NTQ3IDIxNTIuMiA2Ny41NDQ4IDIxMzIuNTcgNTIuNTM0OCAyMTEyLjM2IDQxLjU2NiAyMDg5LjI3IDM0LjYzODMgMjA2Mi4xNCAyNy43MTA3IDIwMzUgMjMuNjY5NSAyMDA1LjU2IDIzLjY2OTUgMTk3NC4zOSAyMy42Njk1IDE5MzkuMTcgMjguODY1MyAxOTA3Ljk5IDM5LjI1NjggMTg4MC44NiA0OS42NDgzIDE4NTMuNzMgNjMuNTAzNiAxODMwLjA2IDgwLjI0NTUgMTgxMS41OCA5Ni45ODczIDE3OTIuNTMgMTE3LjE5MyAxNzc4LjEgMTM5LjcwOCAxNzY4LjI5IDE2Mi4yMjMgMTc1OC40NyAxODUuMzE1IDE3NTMuMjggMjA4Ljk4NSAxNzUzLjI4IDI0MS44OTEgMTc1My4yOCAyNzAuMTc5IDE3NTkuNjMgMjkzLjg0OSAxNzcyLjMzIDMxNy41MTggMTc4NS4wMyAzMzcuMTQ2IDE4MDEuNzcgMzUyLjE1NiAxODIyLjU1IDM2Ny4xNjYgMTg0My4zNCAzNzguMTM1IDE4NjcuMDEgMzg1LjA2MyAxODk0LjE0IDM5MS45OTEgMTkyMS4yNyAzOTQuODc3IDE5NDguOTggMzkzLjcyMiAxOTc3Ljg1TDQwLjQxMTQgMTk3Ny44NUM0MC45ODg3IDIwMDYuNzEgNDQuNDUyNSAyMDMzLjI3IDUwLjgwMjkgMjA1Ny41MlpNMzY2LjU4OSAxODg4LjM3QzM1OS42NjEgMTg2NS4yNyAzNDguNjkzIDE4NDQuNDkgMzM0LjgzNyAxODI3LjE3IDMyMC45ODIgMTgwOS44NSAzMDMuNjYzIDE3OTYgMjgyLjg4IDE3ODUuNjEgMjYyLjA5NyAxNzc1LjIxIDIzNy44NSAxNzcwLjYgMjEwLjcxNyAxNzcwLjYgMTg3LjYyNCAxNzcwLjYgMTY2LjI2NCAxNzc1LjIxIDE0Ni4wNTggMTc4My44NyAxMjUuODUzIDE3OTIuNTMgMTA4LjUzMyAxODA1LjIzIDkzLjUyMzUgMTgyMS45OCA3OC41MTM2IDE4MzguNzIgNjYuMzkwMSAxODU4LjkyIDU3LjE1MzMgMTg4Mi41OSA0Ny45MTY0IDE5MDYuMjYgNDIuMTQzMyAxOTMyLjgyIDQwLjk4ODcgMTk2Mi4yNkwzNzguMTM1IDE5NjIuMjZDMzc3LjU1OCAxOTM2LjI4IDM3NC4wOTQgMTkxMS40NiAzNjYuNTg5IDE4ODguMzdaIiB0cmFuc2Zvcm09Im1hdHJpeCgxIDAgMCAxLjAwMDI1IDkyMyA3MS42MzMyKSIvPjxwYXRoIGQ9Ik03NDYuNDU2IDE3NjMuNjcgNTkxLjczOCAxOTY3LjQ2IDc2MC44ODkgMjE4Ni4yNiA3NDAuMTA2IDIxODYuMjYgNTgxLjM0NyAxOTgwLjE2IDQyMi41ODggMjE4Ni4yNiA0MDIuOTU5IDIxODYuMjYgNTcxLjUzMyAxOTY3LjQ2IDQxNy45NjkgMTc2My42NyA0MzkuMzMgMTc2My42NyA1ODEuMzQ3IDE5NTUuMzMgNzI2LjgyOCAxNzYzLjY3IDc0Ni40NTYgMTc2My42N1oiIHRyYW5zZm9ybT0ibWF0cml4KDEgMCAwIDEuMDAwMjUgOTIzIDcxLjYzMzIpIi8+PHBhdGggZD0iTTc5NC4zNzMgMjMzMS4xNiA3OTQuMzczIDE3NjMuNjcgODEwLjUzNyAxNzYzLjY3IDgxMC41MzcgMTg4Mi4wMiA4MTIuMjY5IDE4ODIuMDJDODE3LjQ2NSAxODYzLjU0IDgyNS41NDcgMTg0Ni4yMiA4MzUuOTM5IDE4MzAuNjQgODQ2LjMzIDE4MTUuMDUgODU4LjQ1MyAxODAxLjE5IDg3Mi44ODYgMTc5MC4yMiA4ODcuMzE5IDE3NzguNjggOTAzLjQ4MyAxNzcwLjAyIDkyMS45NTcgMTc2My42NyA5NDAuNDMxIDE3NTcuMzIgOTYwLjA1OSAxNzU0LjQzIDk4MS40MiAxNzU0LjQzIDEwMDkuMTMgMTc1NC40MyAxMDM0LjUzIDE3NjAuMiAxMDU2LjQ3IDE3NzAuNiAxMDc4LjQxIDE3ODEuNTcgMTA5Ny40NiAxNzk3LjE1IDExMTMuMDUgMTgxNi43OCAxMTI4LjYzIDE4MzYuNDEgMTE0MC43NiAxODYwLjA4IDExNDguODQgMTg4Ni42MyAxMTU2LjkyIDE5MTMuNzcgMTE2MC45NiAxOTQyLjYzIDExNjAuOTYgMTk3NC4zOSAxMTYwLjk2IDIwMDMuODMgMTE1Ni45MiAyMDMyLjEyIDExNDguODQgMjA1OS4yNSAxMTQwLjc2IDIwODYuMzggMTEyOS4yMSAyMTA5LjQ3IDExMTQuMiAyMTI5LjY4IDEwOTkuMTkgMjE0OS44OSAxMDgwLjE0IDIxNjYuMDUgMTA1Ny42MiAyMTc3LjYgMTAzNS4xMSAyMTg5LjE0IDEwMDkuMTMgMjE5NS40OSA5ODAuMjY1IDIxOTUuNDkgOTM1LjIzNSAyMTk1LjQ5IDg5OC4yODggMjE4My45NSA4NjkuNDIyIDIxNjAuMjggODQwLjU1NyAyMTM3LjE5IDgyMC45MjkgMjEwNi4wMSA4MTEuMTE0IDIwNjcuOTFMODA5LjM4MiAyMDY3LjkxIDgwOS4zODIgMjMzMS4xNiA3OTQuMzczIDIzMzEuMTZaTTEwNTUuODkgMjE2MS40M0MxMDc2LjY3IDIxNDkuMzEgMTA5My40MiAyMTMzLjE0IDExMDYuNjkgMjExMy41MiAxMTE5Ljk3IDIwOTMuODkgMTEyOS43OSAyMDcxLjk1IDExMzYuMTQgMjA0Ny43IDExNDIuNDkgMjAyMy40NiAxMTQ1LjM3IDE5OTguNjMgMTE0NS4zNyAxOTc0LjM5IDExNDUuMzcgMTk0Ny4yNSAxMTQxLjkxIDE5MjEuMjcgMTEzNC45OCAxODk2LjQ1IDExMjguMDYgMTg3Mi4yIDExMTguMjQgMTg1MC4yNiAxMTA0LjM5IDE4MzEuNzkgMTA5MS4xMSAxODEyLjc0IDEwNzMuNzkgMTc5Ny43MyAxMDUzLjU4IDE3ODYuNzYgMTAzMi44IDE3NzUuNzkgMTAwOS4xMyAxNzcwLjYgOTgxLjQyIDE3NzAuNiA5NTQuMjg2IDE3NzAuNiA5MzAuNjE3IDE3NzYuMzcgOTA5LjI1NiAxNzg2Ljc2IDg4Ny44OTYgMTc5Ny43MyA4NzAgMTgxMi43NCA4NTUuNTY3IDE4MzEuMjEgODQxLjEzNCAxODQ5LjY5IDgzMC4xNjUgMTg3MS42MiA4MjIuMDgzIDE4OTUuODcgODE0LjU3OCAxOTIwLjcgODEwLjUzNyAxOTQ2LjY3IDgxMC41MzcgMTk3My44MSA4MTAuNTM3IDIwNDAuMiA4MjYuMTI0IDIwOTEgODU3LjI5OSAyMTI2LjIyIDg4OC40NzMgMjE2MS40MyA5MzAuMDM5IDIxNzkuMzMgOTgxLjQyIDIxNzkuMzMgMTAxMC44NiAyMTc5LjkxIDEwMzUuNjkgMjE3My41NiAxMDU1Ljg5IDIxNjEuNDNaIiB0cmFuc2Zvcm09Im1hdHJpeCgxIDAgMCAxLjAwMDI1IDkyMyA3MS42MzMyKSIvPjxwYXRoIGQ9Ik0xMjM2LjAxIDIxODYuMjYgMTIzNi4wMSAxNzYzLjY3IDEyNTIuMTggMTc2My42NyAxMjUyLjE4IDE4NjguMTYgMTI1My45MSAxODY4LjE2QzEyNTcuOTUgMTg1MiAxMjYzLjcyIDE4MzcuNTYgMTI3MS44IDE4MjMuMTMgMTI3OS44OSAxODA5LjI4IDEyOTAuODYgMTc5Ny4xNSAxMzA0LjcxIDE3ODYuNzYgMTMxOC41NyAxNzc2LjM3IDEzMzQuNzMgMTc2OC4yOSAxMzUzLjc4IDE3NjEuOTQgMTM3Mi44MyAxNzU2LjE2IDEzOTQuNzcgMTc1My4yOCAxNDIwLjE3IDE3NTMuODVMMTQyMC4xNyAxNzcwLjAyQzEzOTEuMzEgMTc2OC4yOSAxMzY1LjkxIDE3NzIuMzMgMTM0NS4xMiAxNzgyLjE0IDEzMjMuNzYgMTc5MS45NiAxMzA2LjQ0IDE4MDQuNjYgMTI5My4xNiAxODIxLjQgMTI3OS4zMSAxODM4LjE0IDEyNjkuNDkgMTg1Ny4xOSAxMjYyLjU3IDE4NzkuMTMgMTI1Ni4yMiAxOTAxLjA3IDEyNTIuNzUgMTkyMy41OCAxMjUyLjc1IDE5NDYuNjdMMTI1Mi43NSAyMTg1LjY4IDEyMzYuMDEgMjE4NS42OFoiIHRyYW5zZm9ybT0ibWF0cml4KDEgMCAwIDEuMDAwMjUgOTIzIDcxLjYzMzIpIi8+PHBhdGggZD0iTTE0NTAuNzcgMjA1Ny41MkMxNDU3LjEyIDIwODEuNzYgMTQ2Ni45MyAyMTAzLjEyIDE0ODAuMjEgMjEyMS4wMiAxNDkzLjQ5IDIxMzguOTIgMTUxMC4yMyAyMTUzLjM1IDE1MzEuMDEgMjE2My43NCAxNTUxLjggMjE3NC4xMyAxNTc3LjIgMjE3OS4zMyAxNjA3LjIyIDIxNzkuMzMgMTY1MS42NyAyMTc5LjMzIDE2ODguNjIgMjE2Ny43OCAxNzE4LjA2IDIxNDQuMTEgMTc0Ny41IDIxMjEuMDIgMTc2NS40IDIwODUuODEgMTc3Mi45MSAyMDM5LjA0TDE3ODkuMDcgMjAzOS4wNEMxNzgzLjMgMjA4OC4xMSAxNzYzLjY3IDIxMjYuNzkgMTczMC43NiAyMTUzLjkzIDE2OTcuODYgMjE4MS4wNiAxNjU3LjQ0IDIxOTQuMzQgMTYwOC45NSAyMTk0LjM0IDE1NzYuMDQgMjE5NC45MiAxNTQ3Ljc2IDIxODkuNzIgMTUyNC42NiAyMTc4Ljc1IDE1MDEuNTcgMjE2Ny43OCAxNDgyLjUyIDIxNTIuMiAxNDY3LjUxIDIxMzIuNTcgMTQ1Mi41IDIxMTIuMzYgMTQ0MS41MyAyMDg5LjI3IDE0MzQuNiAyMDYyLjE0IDE0MjcuNjggMjAzNSAxNDIzLjY0IDIwMDUuNTYgMTQyMy42NCAxOTc0LjM5IDE0MjMuNjQgMTkzOS4xNyAxNDI4LjgzIDE5MDcuOTkgMTQzOS4yMiAxODgwLjg2IDE0NDkuNjEgMTg1My43MyAxNDYzLjQ3IDE4MzAuMDYgMTQ4MC4yMSAxODExLjU4IDE0OTYuOTUgMTc5Mi41MyAxNTE3LjE2IDE3NzguMSAxNTM5LjY3IDE3NjguMjkgMTU2Mi4xOSAxNzU4LjQ3IDE1ODUuMjggMTc1My4yOCAxNjA4Ljk1IDE3NTMuMjggMTY0MS44NiAxNzUzLjI4IDE2NzAuMTUgMTc1OS42MyAxNjkzLjgxIDE3NzIuMzMgMTcxNy40OCAxNzg1LjAzIDE3MzcuMTEgMTgwMS43NyAxNzUyLjEyIDE4MjIuNTUgMTc2Ny4xMyAxODQzLjM0IDE3NzguMSAxODY3LjAxIDE3ODUuMDMgMTg5NC4xNCAxNzkxLjk2IDE5MjEuMjcgMTc5NC44NCAxOTQ4Ljk4IDE3OTMuNjkgMTk3Ny44NUwxNDQwLjM4IDE5NzcuODVDMTQ0MC45NSAyMDA2LjcxIDE0NDQuNDIgMjAzMy4yNyAxNDUwLjc3IDIwNTcuNTJaTTE3NjcuMTMgMTg4OC4zN0MxNzYwLjIgMTg2NS4yNyAxNzQ5LjI0IDE4NDQuNDkgMTczNS4zOCAxODI3LjE3IDE3MjEuNTMgMTgwOS44NSAxNzA0LjIxIDE3OTYgMTY4My40MiAxNzg1LjYxIDE2NjIuNjQgMTc3NS4yMSAxNjM4LjM5IDE3NzAuNiAxNjExLjI2IDE3NzAuNiAxNTg4LjE3IDE3NzAuNiAxNTY2LjgxIDE3NzUuMjEgMTU0Ni42IDE3ODMuODcgMTUyNi40IDE3OTIuNTMgMTUwOS4wOCAxODA1LjIzIDE0OTQuMDcgMTgyMS45OCAxNDc5LjA2IDE4MzguNzIgMTQ2Ni45MyAxODU4LjkyIDE0NTcuNyAxODgyLjU5IDE0NDguNDYgMTkwNi4yNiAxNDQyLjY5IDE5MzIuODIgMTQ0MS41MyAxOTYyLjI2TDE3NzguNjggMTk2Mi4yNkMxNzc3LjUyIDE5MzYuMjggMTc3NC4wNiAxOTExLjQ2IDE3NjcuMTMgMTg4OC4zN1oiIHRyYW5zZm9ybT0ibWF0cml4KDEgMCAwIDEuMDAwMjUgOTIzIDcxLjYzMzIpIi8+PHBhdGggZD0iTTIxMjUuMDYgMTgzNC42OEMyMTE4LjcxIDE4MTkuNjcgMjEwOC45IDE4MDcuNTQgMjA5Ny4zNSAxNzk4LjMxIDIwODUuMjMgMTc4OC40OSAyMDcwLjggMTc4MS41NyAyMDU0LjA1IDE3NzcuNTIgMjAzNy4zMSAxNzcyLjkxIDIwMTguODQgMTc3MS4xNyAxOTk4LjYzIDE3NzEuMTcgMTk2OS4xOSAxNzcxLjE3IDE5NDUuNTIgMTc3NS4yMSAxOTI4Ljc4IDE3ODMuMyAxOTEyLjA0IDE3OTEuMzggMTg5OS4zNCAxODAwLjA0IDE4OTAuNjggMTgxMC40MyAxODgyLjU5IDE4MjAuODIgMTg3Ny40IDE4MzAuNjQgMTg3NS4wOSAxODQwLjQ1IDE4NzIuNzggMTg1MC4yNiAxODcxLjYyIDE4NTcuMTkgMTg3MS42MiAxODYxLjIzIDE4NzEuNjIgMTg4Mi4wMiAxODc1LjY3IDE4OTguMTggMTg4NC4zMyAxOTA5LjE1IDE4OTIuOTggMTkyMC4xMiAxOTAzLjk1IDE5MjguNzggMTkxOC4zOSAxOTM1LjEzIDE5MzMuNCAxOTQwLjkgMTk0OC45OCAxOTQ2LjEgMTk2Ni4zIDE5NTAuNzIgMTk4My42MiAxOTU1LjMzIDIwMDMuODMgMTk2MC41MyAyMDI2LjkyIDE5NjYuMyAyMDQzLjA4IDE5NzAuOTIgMjA1OS44MyAxOTc0Ljk2IDIwNzUuOTkgMTk3OS41OCAyMDkyLjE2IDE5ODQuMiAyMTA2LjU5IDE5OTAuNTUgMjExOS4yOSAxOTk4LjYzIDIxMzEuOTkgMjAwNi43MSAyMTQyLjM4IDIwMTcuMTEgMjE1MC40NiAyMDI5LjgxIDIxNTguNTUgMjA0Mi41MSAyMTYyLjU5IDIwNTguNjcgMjE2Mi41OSAyMDc4Ljg4IDIxNjIuNTkgMjEwMC4yNCAyMTU3Ljk3IDIxMTguMTMgMjE0OS4zMSAyMTMzLjE0IDIxNDAuMDcgMjE0OC4xNSAyMTI4LjUzIDIxNjAuMjggMjExNC4wOSAyMTY5LjUxIDIwOTkuNjYgMjE3OC43NSAyMDgyLjkyIDIxODUuNjggMjA2NS4wMiAyMTg5LjcyIDIwNDYuNTUgMjE5My43NiAyMDI4LjY1IDIxOTYuMDcgMjAxMC4xOCAyMTk2LjA3IDE5NTMuNiAyMTk2LjA3IDE5MTAuODggMjE4My45NSAxODgyLjU5IDIxNTkuMTIgMTg1NC4zMSAyMTM0LjMgMTgzOS4zIDIwOTUuNjIgMTgzOS4zIDIwNDIuNTFMMTg1NS40NiAyMDQyLjUxQzE4NTUuNDYgMjA5MC40MiAxODY4Ljc0IDIxMjUuMDYgMTg5NS4yOSAyMTQ3LjU4IDE5MjEuODUgMjE2OS41MSAxOTU5Ljk1IDIxODEuMDYgMjAxMC4xOCAyMTgxLjA2IDIwMjUuNzcgMjE4MS4wNiAyMDQxLjM1IDIxNzkuMzMgMjA1Ny41MiAyMTc1Ljg2IDIwNzMuNjggMjE3Mi40IDIwODguMTEgMjE2Ni42MyAyMTAxLjM5IDIxNTguNTUgMjExNC42NyAyMTUwLjQ2IDIxMjUuNjQgMjE0MC4wNyAyMTMzLjcyIDIxMjcuOTUgMjE0Mi4zOCAyMTE1LjI1IDIxNDYuNDIgMjEwMC4yNCAyMTQ2LjQyIDIwODEuNzYgMjE0Ni40MiAyMDYzLjI5IDIxNDIuMzggMjA0OC4yOCAyMTMzLjcyIDIwMzYuNzMgMjEyNS4wNiAyMDI1LjE5IDIxMTQuMDkgMjAxNS45NSAyMTAwLjgxIDIwMDguNDUgMjA4Ny41NCAyMDAwLjk0IDIwNzEuOTUgMTk5NS4xNyAyMDU0LjYzIDE5OTAuNTUgMjAzNy4zMSAxOTg1LjkzIDIwMTkuNDEgMTk4MS44OSAyMDAwLjk0IDE5NzcuMjcgMTk4MC43NCAxOTcyLjA4IDE5NjIuODQgMTk2Ny40NiAxOTQ3LjI1IDE5NjMuNDIgMTkzMS42NiAxOTU4LjggMTkxOC4zOSAxOTU0LjE4IDE5MDYuMjYgMTk0OC40MSAxODg4Ljk0IDE5NDAuOSAxODc1LjY3IDE5MjkuOTMgMTg2Ny41OCAxOTE2LjA4IDE4NTkuNSAxOTAyLjIyIDE4NTUuNDYgMTg4My43NSAxODU1LjQ2IDE4NjEuMjMgMTg1NS40NiAxODQ5LjY5IDE4NTcuNzcgMTgzNy41NiAxODYyLjk3IDE4MjQuODYgMTg2OC4xNiAxODEyLjE2IDE4NzYuMjQgMTgwMC42MiAxODg3Ljc5IDE3OTAuMjIgMTg5OS4zNCAxNzc5LjgzIDE5MTQuMzUgMTc3MS4xNyAxOTMyLjI0IDE3NjQuODIgMTk1MC4xNCAxNzU4LjQ3IDE5NzIuNjUgMTc1NS4wMSAxOTk4LjYzIDE3NTUuMDEgMjA0NS45NyAxNzU1LjAxIDIwODIuOTIgMTc2NS45OCAyMTEwLjYzIDE3ODcuMzQgMjEzNy43NiAxODA4LjcgMjE1MS42MiAxODQyLjc2IDIxNTEuNjIgMTg5MC4xTDIxMzUuNDUgMTg5MC4xQzIxMzQuODggMTg2Ny41OCAyMTMxLjk5IDE4NDkuMTEgMjEyNS4wNiAxODM0LjY4WiIgdHJhbnNmb3JtPSJtYXRyaXgoMSAwIDAgMS4wMDAyNSA5MjMgNzEuNjMzMikiLz48cGF0aCBkPSJNMjUwNi4wOCAxODM0LjY4QzI0OTkuNzMgMTgxOS42NyAyNDg5LjkyIDE4MDcuNTQgMjQ3OC4zNyAxNzk4LjMxIDI0NjYuMjUgMTc4OC40OSAyNDUxLjgyIDE3ODEuNTcgMjQzNS4wNyAxNzc3LjUyIDI0MTguMzMgMTc3Mi45MSAyMzk5Ljg2IDE3NzEuMTcgMjM3OS42NSAxNzcxLjE3IDIzNTAuMjEgMTc3MS4xNyAyMzI2LjU0IDE3NzUuMjEgMjMwOS44IDE3ODMuMyAyMjkzLjA2IDE3OTEuMzggMjI4MC4zNiAxODAwLjA0IDIyNzEuNyAxODEwLjQzIDIyNjMuNjIgMTgyMC44MiAyMjU4LjQyIDE4MzAuNjQgMjI1Ni4xMSAxODQwLjQ1IDIyNTMuOCAxODUwLjI2IDIyNTIuNjUgMTg1Ny4xOSAyMjUyLjY1IDE4NjEuMjMgMjI1Mi42NSAxODgyLjAyIDIyNTYuNjkgMTg5OC4xOCAyMjY1LjM1IDE5MDkuMTUgMjI3NC4wMSAxOTIwLjEyIDIyODQuOTggMTkyOC43OCAyMjk5LjQxIDE5MzUuMTMgMjMxNC40MiAxOTQwLjkgMjMzMC4wMSAxOTQ2LjEgMjM0Ny4zMiAxOTUwLjcyIDIzNjQuNjQgMTk1NS4zMyAyMzg0Ljg1IDE5NjAuNTMgMjQwNy45NCAxOTY2LjMgMjQyNC4xMSAxOTcwLjkyIDI0NDAuODUgMTk3NC45NiAyNDU3LjAxIDE5NzkuNTggMjQ3My4xOCAxOTg0LjIgMjQ4Ny42MSAxOTkwLjU1IDI1MDAuMzEgMTk5OC42MyAyNTEzLjAxIDIwMDYuNzEgMjUyMy40IDIwMTcuMTEgMjUzMS40OSAyMDI5LjgxIDI1MzkuNTcgMjA0Mi41MSAyNTQzLjYxIDIwNTguNjcgMjU0My42MSAyMDc4Ljg4IDI1NDMuNjEgMjEwMC4yNCAyNTM4Ljk5IDIxMTguMTMgMjUzMC4zMyAyMTMzLjE0IDI1MjEuMDkgMjE0OC4xNSAyNTA5LjU1IDIxNjAuMjggMjQ5NS4xMSAyMTY5LjUxIDI0ODAuNjggMjE3OC43NSAyNDYzLjk0IDIxODUuNjggMjQ0Ni4wNCAyMTg5LjcyIDI0MjcuNTcgMjE5My43NiAyNDA5LjY3IDIxOTYuMDcgMjM5MS4yIDIxOTYuMDcgMjMzNC42MiAyMTk2LjA3IDIyOTEuOSAyMTgzLjk1IDIyNjMuNjIgMjE1OS4xMiAyMjM1LjMzIDIxMzQuMyAyMjIwLjMyIDIwOTUuNjIgMjIyMC4zMiAyMDQyLjUxTDIyMzYuNDggMjA0Mi41MUMyMjM2LjQ4IDIwOTAuNDIgMjI0OS43NiAyMTI1LjA2IDIyNzYuMzIgMjE0Ny41OCAyMzAyLjg3IDIxNjkuNTEgMjM0MC45NyAyMTgxLjA2IDIzOTEuMiAyMTgxLjA2IDI0MDYuNzkgMjE4MS4wNiAyNDIyLjM3IDIxNzkuMzMgMjQzOC41NCAyMTc1Ljg2IDI0NTQuNyAyMTcyLjQgMjQ2OS4xNCAyMTY2LjYzIDI0ODIuNDEgMjE1OC41NSAyNDk1LjY5IDIxNTAuNDYgMjUwNi42NiAyMTQwLjA3IDI1MTQuNzQgMjEyNy45NSAyNTIzLjQgMjExNS4yNSAyNTI3LjQ0IDIxMDAuMjQgMjUyNy40NCAyMDgxLjc2IDI1MjcuNDQgMjA2My4yOSAyNTIzLjQgMjA0OC4yOCAyNTE0Ljc0IDIwMzYuNzMgMjUwNi4wOCAyMDI1LjE5IDI0OTUuMTEgMjAxNS45NSAyNDgxLjg0IDIwMDguNDUgMjQ2OC41NiAyMDAwLjk0IDI0NTIuOTcgMTk5NS4xNyAyNDM1LjY1IDE5OTAuNTUgMjQxOC4zMyAxOTg1LjkzIDI0MDAuNDQgMTk4MS44OSAyMzgxLjk2IDE5NzcuMjcgMjM2MS43NiAxOTcyLjA4IDIzNDMuODYgMTk2Ny40NiAyMzI4LjI3IDE5NjMuNDIgMjMxMi42OSAxOTU4LjggMjI5OS40MSAxOTU0LjE4IDIyODcuMjggMTk0OC40MSAyMjY5Ljk3IDE5NDAuOSAyMjU2LjY5IDE5MjkuOTMgMjI0OC42MSAxOTE2LjA4IDIyNDAuNTIgMTkwMi4yMiAyMjM2LjQ4IDE4ODMuNzUgMjIzNi40OCAxODYxLjIzIDIyMzYuNDggMTg0OS42OSAyMjM4Ljc5IDE4MzcuNTYgMjI0My45OSAxODI0Ljg2IDIyNDkuMTggMTgxMi4xNiAyMjU3LjI2IDE4MDAuNjIgMjI2OC44MSAxNzkwLjIyIDIyODAuMzYgMTc3OS44MyAyMjk1LjM3IDE3NzEuMTcgMjMxMy4yNiAxNzY0LjgyIDIzMzEuMTYgMTc1OC40NyAyMzUzLjY4IDE3NTUuMDEgMjM3OS42NSAxNzU1LjAxIDI0MjYuOTkgMTc1NS4wMSAyNDYzLjk0IDE3NjUuOTggMjQ5MS42NSAxNzg3LjM0IDI1MTguNzggMTgwOC43IDI1MzIuNjQgMTg0Mi43NiAyNTMyLjY0IDE4OTAuMUwyNTE2LjQ4IDE4OTAuMUMyNTE1LjkgMTg2Ny41OCAyNTEyLjQzIDE4NDkuMTEgMjUwNi4wOCAxODM0LjY4WiIgdHJhbnNmb3JtPSJtYXRyaXgoMSAwIDAgMS4wMDAyNSA5MjMgNzEuNjMzMikiLz48L2c+PC9nPjwvZz48L2c+PC9zdmc+;" vertex="1" parent="1">
                    <mxGeometry x="702.73" y="147" width="106.54" height="67" as="geometry"/>
                </mxCell>
                <mxCell id="35" style="edgeStyle=none;html=1;exitX=0.5;exitY=1;exitDx=0;exitDy=0;endArrow=none;endFill=0;dashed=1;" edge="1" parent="1" source="9" target="6">
                    <mxGeometry relative="1" as="geometry"/>
                </mxCell>
                <mxCell id="37" style="edgeStyle=none;html=1;exitX=0.5;exitY=1;exitDx=0;exitDy=0;entryX=0.5;entryY=0;entryDx=0;entryDy=0;dashed=1;endArrow=none;endFill=0;" edge="1" parent="1" source="8" target="7">
                    <mxGeometry relative="1" as="geometry"/>
                </mxCell>
                <mxCell id="41" value="&lt;h1&gt;MERN&lt;/h1&gt;&lt;p&gt;Express und Node bilden die mittlere (Anwendungs-) Ebene. Express.js ist ein serverseitiges Webframework und Node.js die beliebte und leistungsstarke JavaScript-Serverplattform. MERN ist der ideale Ansatz, um durchgängig mit JavaScript und JSON zu arbeiten.&lt;/p&gt;&lt;p&gt;&lt;br&gt;&lt;/p&gt;&lt;p&gt;&lt;b&gt;&lt;font style=&quot;font-size: 24px&quot;&gt;React.js-Frontend&lt;/font&gt;&lt;/b&gt;&lt;/p&gt;&lt;p&gt;Die oberste Ebene des MERN-Stacks ist React.js, das deklarative JavaScript-Framework zum Erstellen dynamischer clientseitiger Anwendungen in HTML. Mit React können Sie komplexe Schnittstellen durch einfache Komponenten aufbauen, sie mit Daten auf Ihrem Backend-Server verbinden und sie als HTML rendern.&lt;/p&gt;&lt;p&gt;Die Stärke von React besteht darin, zustandsbehaftete, datengesteuerte Schnittstellen mit minimalem Code und minimalem Aufwand zu handhaben und bietet als moderner Web-Framework viele hilfreiche Werkzeuge wie:&amp;nbsp;&lt;/p&gt;&lt;p&gt;&lt;/p&gt;&lt;ul&gt;&lt;li&gt;großartige Unterstützung für Formulare&lt;/li&gt;&lt;li&gt;Fehlerbehandlung&lt;/li&gt;&lt;li&gt;Ereignisse&lt;/li&gt;&lt;li&gt;Listen und mehr&lt;/li&gt;&lt;/ul&gt;&lt;div&gt;&lt;br&gt;&lt;/div&gt;&lt;p&gt;&lt;/p&gt;&lt;p&gt;&lt;font style=&quot;font-size: 24px&quot;&gt;&lt;b&gt;Express.js- und Node.js-Serverebene&lt;/b&gt;&lt;/font&gt;&lt;/p&gt;&lt;p&gt;Die nächste Ebene nach unten ist das serverseitige Express.js-Framework, das innerhalb eines Node.js-Servers ausgeführt wird. Express.js bezeichnet sich selbst als „schnelles, unparteiisches, minimalistisches Web-Framework für Node.js“, und genau das ist es auch. Express.js verfügt über leistungsstarke Modelle für das URL-Routing (Abgleich einer eingehenden URL mit einer Serverfunktion) und die Verarbeitung von HTTP-Anforderungen und -Antworten.&lt;/p&gt;&lt;p&gt;Indem Sie XML-HTTP-Anforderungen (XHRs) oder GETs oder POSTs von Ihrem React.js-Front-End ausführen, können Sie eine Verbindung zu Express.js-Funktionen herstellen, die Ihre Anwendung unterstützen. Diese Funktionen wiederum verwenden die Node.js-Treiber von MongoDB, entweder über Rückrufe für die Verwendung von Promises, um auf Daten in Ihrer MongoDB-Datenbank zuzugreifen und diese zu aktualisieren.&lt;/p&gt;&lt;p&gt;&lt;br&gt;&lt;/p&gt;&lt;p&gt;&lt;b&gt;&lt;font style=&quot;font-size: 24px&quot;&gt;MongoDB-Datenbankebene&lt;/font&gt;&lt;/b&gt;&lt;/p&gt;&lt;p&gt;Wenn Ihre Anwendung Daten speichert (Benutzerprofile, Inhalte, Kommentare, Uploads, Ereignisse usw.), möchten Sie eine Datenbank, mit der Sie genauso einfach arbeiten können wie mit React, Express und Node.&lt;/p&gt;&lt;p&gt;Hier kommt MongoDB ins Spiel: JSON-Dokumente, die in Ihrem React.js-Frontend erstellt wurden, können an den Express.js-Server gesendet werden, wo sie verarbeitet und (vorausgesetzt, sie sind gültig) für einen späteren Abruf direkt in MongoDB gespeichert werden.&lt;/p&gt;" style="text;html=1;strokeColor=none;fillColor=none;spacing=5;spacingTop=-20;whiteSpace=wrap;overflow=hidden;rounded=0;" vertex="1" parent="1">
                    <mxGeometry x="15" y="480" width="1140" height="680" as="geometry"/>
                </mxCell>
            </root>
        </mxGraphModel>
    </diagram>
</mxfile>